<?xml version="1.0" encoding="UTF-8"?>
<!DOCTYPE svg PUBLIC "-//W3C//DTD SVG 1.1//EN" "http://www.w3.org/Graphics/SVG/1.1/DTD/svg11.dtd">
<svg xmlns="http://www.w3.org/2000/svg" version="1.1" width="500px" height="500px" style="shape-rendering:geometricPrecision; text-rendering:geometricPrecision; image-rendering:optimizeQuality; fill-rule:evenodd; clip-rule:evenodd" xmlns:xlink="http://www.w3.org/1999/xlink">
<g><path style="opacity:1" fill="#fdfefe" d="M -0.5,-0.5 C 166.167,-0.5 332.833,-0.5 499.5,-0.5C 499.5,166.167 499.5,332.833 499.5,499.5C 332.833,499.5 166.167,499.5 -0.5,499.5C -0.5,332.833 -0.5,166.167 -0.5,-0.5 Z"/></g>
<g><path style="opacity:1" fill="#ecf7f8" d="M 155.5,238.5 C 163.833,238.5 172.167,238.5 180.5,238.5C 180.334,231.492 180.5,224.492 181,217.5C 181.997,215.677 183.164,214.01 184.5,212.5C 187.167,211.5 189.833,210.5 192.5,209.5C 193.832,200.859 194.498,191.859 194.5,182.5C 194.5,173.327 194.166,164.327 193.5,155.5C 135.5,155.5 77.5,155.5 19.5,155.5C 23.1102,153.467 26.9435,151.801 31,150.5C 61.4582,152.191 92.1249,153.191 123,153.5C 146.737,152.477 170.571,152.31 194.5,153C 197.693,154.026 199.026,156.192 198.5,159.5C 199.5,159.5 200.5,159.5 201.5,159.5C 201.5,175.5 201.5,191.5 201.5,207.5C 198.813,208.664 196.48,210.497 194.5,213C 185.737,213.118 181.737,217.784 182.5,227C 182.976,231.16 183.309,235.327 183.5,239.5C 173.985,239.827 164.652,239.494 155.5,238.5 Z"/></g>
<g><path style="opacity:1" fill="#3b6d7d" d="M 19.5,155.5 C 77.5,155.5 135.5,155.5 193.5,155.5C 193.819,173.577 193.486,191.577 192.5,209.5C 189.833,210.5 187.167,211.5 184.5,212.5C 185.207,208.672 187.54,207.005 191.5,207.5C 191.5,190.5 191.5,173.5 191.5,156.5C 134.832,156.333 78.1657,156.5 21.5,157C 20.1667,178.333 20.1667,199.667 21.5,221C 20.9056,221.464 20.2389,221.631 19.5,221.5C 19.5,199.5 19.5,177.5 19.5,155.5 Z"/></g>
<g><path style="opacity:1" fill="#457180" d="M 399.5,155.5 C 383.342,156.496 367.009,156.83 350.5,156.5C 349.5,156.5 348.5,156.5 347.5,156.5C 305.167,156.5 262.833,156.5 220.5,156.5C 220.5,159.167 220.5,161.833 220.5,164.5C 220.5,165.5 220.5,166.5 220.5,167.5C 220.5,168.833 220.5,170.167 220.5,171.5C 220.5,172.167 220.5,172.833 220.5,173.5C 220.5,177.167 220.5,180.833 220.5,184.5C 220.5,185.5 220.5,186.5 220.5,187.5C 220.5,188.833 220.5,190.167 220.5,191.5C 219.512,196.64 219.179,201.974 219.5,207.5C 219.5,208.167 219.5,208.833 219.5,209.5C 218.503,191.674 218.17,173.674 218.5,155.5C 278.833,155.5 339.167,155.5 399.5,155.5 Z"/></g>
<g><path style="opacity:1" fill="#2c718a" d="M 184.5,212.5 C 183.164,214.01 181.997,215.677 181,217.5C 180.5,224.492 180.334,231.492 180.5,238.5C 172.167,238.5 163.833,238.5 155.5,238.5C 154.709,232.581 154.209,226.581 154,220.5C 152.085,215.945 148.585,213.445 143.5,213C 124.789,212.066 106.123,212.4 87.5,214C 80.2263,216.106 76.5596,220.939 76.5,228.5C 75.1667,231.167 75.1667,233.833 76.5,236.5C 76.5,237.5 76.5,238.5 76.5,239.5C 85.1731,239.334 93.8397,239.5 102.5,240C 101.167,240.667 101.167,241.333 102.5,242C 94.8406,242.5 87.1739,242.666 79.5,242.5C 79.5,243.5 79.5,244.5 79.5,245.5C 91.3432,246.503 103.177,246.503 115,245.5C 119.167,245.833 123.333,246.167 127.5,246.5C 122.208,247.495 116.875,247.828 111.5,247.5C 111.5,249.167 111.5,250.833 111.5,252.5C 99.5399,251.202 87.5399,250.369 75.5,250C 75.8333,249.667 76.1667,249.333 76.5,249C 73.4119,248.421 70.7452,247.087 68.5,245C 66.8659,244.506 65.1992,244.34 63.5,244.5C 63.5,246.167 63.5,247.833 63.5,249.5C 64.675,249.281 65.675,249.614 66.5,250.5C 67.1667,252.5 67.8333,254.5 68.5,256.5C 67.273,257.59 66.4396,258.924 66,260.5C 65.6924,259.692 65.1924,259.025 64.5,258.5C 63.5481,260.045 63.2148,261.712 63.5,263.5C 61.712,263.785 60.0453,263.452 58.5,262.5C 59.3333,260.833 60.1667,259.167 61,257.5C 61.1753,249.922 62.0086,242.422 63.5,235C 63.3333,233.5 63.1667,232 63,230.5C 60.8951,233.107 60.0617,236.107 60.5,239.5C 59.5,239.5 58.5,239.5 57.5,239.5C 57.5,244.833 57.5,250.167 57.5,255.5C 56.1667,255.5 54.8333,255.5 53.5,255.5C 53.6227,247.13 53.1227,238.797 52,230.5C 48.7644,228.588 45.2644,227.588 41.5,227.5C 33.8855,225.614 26.5522,223.614 19.5,221.5C 20.2389,221.631 20.9056,221.464 21.5,221C 20.1667,199.667 20.1667,178.333 21.5,157C 78.1657,156.5 134.832,156.333 191.5,156.5C 191.5,173.5 191.5,190.5 191.5,207.5C 187.54,207.005 185.207,208.672 184.5,212.5 Z"/></g>
<g><path style="opacity:1" fill="#b4d4e2" d="M 193.5,155.5 C 194.166,164.327 194.5,173.327 194.5,182.5C 194.498,191.859 193.832,200.859 192.5,209.5C 193.486,191.577 193.819,173.577 193.5,155.5 Z"/></g>
<g><path style="opacity:1" fill="#498fb1" d="M 347.5,156.5 C 348.5,156.5 349.5,156.5 350.5,156.5C 358.305,157.831 366.472,158.498 375,158.5C 383.775,158.142 392.275,158.142 400.5,158.5C 373.336,159.167 346.336,159.833 319.5,160.5C 286.832,160.667 254.165,160.5 221.5,160C 222.167,159.667 222.833,159.333 223.5,159C 265.167,158.667 306.833,158.333 348.5,158C 347.944,157.617 347.611,157.117 347.5,156.5 Z"/></g>
<g><path style="opacity:1" fill="#2e718d" d="M 347.5,156.5 C 347.611,157.117 347.944,157.617 348.5,158C 306.833,158.333 265.167,158.667 223.5,159C 222.833,159.333 222.167,159.667 221.5,160C 254.165,160.5 286.832,160.667 319.5,160.5C 333.658,160.55 347.658,160.716 361.5,161C 359.46,162.373 357.794,164.04 356.5,166C 356.833,166.5 357.167,167 357.5,167.5C 358.719,166.737 359.719,165.737 360.5,164.5C 361.386,165.325 361.719,166.325 361.5,167.5C 362.552,167.351 363.552,167.517 364.5,168C 362.579,169.241 362.246,170.741 363.5,172.5C 366.384,170.044 367.051,170.71 365.5,174.5C 366.547,176.056 367.214,177.723 367.5,179.5C 368.5,179.5 369.5,179.5 370.5,179.5C 371.167,181.5 371.833,183.5 372.5,185.5C 375.237,185.37 377.237,186.536 378.5,189C 378.095,189.945 377.428,190.612 376.5,191C 362.837,191.5 349.171,191.667 335.5,191.5C 297.167,191.5 258.833,191.5 220.5,191.5C 220.5,190.167 220.5,188.833 220.5,187.5C 258.837,187.367 297.171,186.867 335.5,186C 315.833,185.667 296.167,185.333 276.5,185C 274.5,184.667 272.5,184.333 270.5,184C 271.337,182.989 271.67,181.822 271.5,180.5C 388.823,179.167 388.823,178.5 271.5,178.5C 271.631,177.624 271.298,176.957 270.5,176.5C 267.947,176.652 265.447,176.652 263,176.5C 262.517,175.552 262.351,174.552 262.5,173.5C 273.505,173.667 284.505,173.5 295.5,173C 282.355,172.734 269.355,171.401 256.5,169C 256.833,168.667 257.167,168.333 257.5,168C 283.482,166.813 309.482,166.146 335.5,166C 297.166,165.491 258.832,164.991 220.5,164.5C 220.5,161.833 220.5,159.167 220.5,156.5C 262.833,156.5 305.167,156.5 347.5,156.5 Z"/></g>
<g><path style="opacity:1" fill="#30718d" d="M 220.5,167.5 C 231.167,167.5 241.833,167.5 252.5,167.5C 252.64,169.124 251.973,170.29 250.5,171C 240.506,171.5 230.506,171.666 220.5,171.5C 220.5,170.167 220.5,168.833 220.5,167.5 Z"/></g>
<g><path style="opacity:1" fill="#95b2c3" d="M 405.5,155.5 C 406.166,164.327 406.5,173.327 406.5,182.5C 406.498,191.859 405.832,200.859 404.5,209.5C 405.486,191.577 405.819,173.577 405.5,155.5 Z"/></g>
<g><path style="opacity:1" fill="#4a8aa9" d="M 220.5,164.5 C 258.832,164.991 297.166,165.491 335.5,166C 309.482,166.146 283.482,166.813 257.5,168C 257.167,168.333 256.833,168.667 256.5,169C 269.355,171.401 282.355,172.734 295.5,173C 284.505,173.5 273.505,173.667 262.5,173.5C 248.5,173.5 234.5,173.5 220.5,173.5C 220.5,172.833 220.5,172.167 220.5,171.5C 230.506,171.666 240.506,171.5 250.5,171C 251.973,170.29 252.64,169.124 252.5,167.5C 241.833,167.5 231.167,167.5 220.5,167.5C 220.5,166.5 220.5,165.5 220.5,164.5 Z"/></g>
<g><path style="opacity:1" fill="#3c7b9a" d="M 220.5,173.5 C 234.5,173.5 248.5,173.5 262.5,173.5C 262.351,174.552 262.517,175.552 263,176.5C 265.447,176.652 267.947,176.652 270.5,176.5C 271.298,176.957 271.631,177.624 271.5,178.5C 265.739,178.709 265.406,179.542 270.5,181C 269.5,182 268.5,183 267.5,184C 251.837,184.5 236.17,184.667 220.5,184.5C 220.5,180.833 220.5,177.167 220.5,173.5 Z"/></g>
<g><path style="opacity:1" fill="#4b8caa" d="M 271.5,178.5 C 388.823,178.5 388.823,179.167 271.5,180.5C 271.67,181.822 271.337,182.989 270.5,184C 272.5,184.333 274.5,184.667 276.5,185C 296.167,185.333 315.833,185.667 335.5,186C 297.171,186.867 258.837,187.367 220.5,187.5C 220.5,186.5 220.5,185.5 220.5,184.5C 236.17,184.667 251.837,184.5 267.5,184C 268.5,183 269.5,182 270.5,181C 265.406,179.542 265.739,178.709 271.5,178.5 Z"/></g>
<g><path style="opacity:1" fill="#2e7189" d="M 399.5,155.5 C 401.5,155.5 403.5,155.5 405.5,155.5C 405.819,173.577 405.486,191.577 404.5,209.5C 401.008,210.41 398.008,212.076 395.5,214.5C 394.442,215.6 393.608,216.934 393,218.5C 392.5,225.158 392.334,231.825 392.5,238.5C 384.167,238.5 375.833,238.5 367.5,238.5C 369.614,229.842 366.947,223.342 359.5,219C 349.833,217 340.167,217 330.5,219C 328.43,219.948 326.93,221.448 326,223.5C 325.333,234.167 325.333,244.833 326,255.5C 328.232,260.731 332.065,264.231 337.5,266C 343.369,267.807 349.369,268.641 355.5,268.5C 355.5,291.167 355.5,313.833 355.5,336.5C 349.5,336.5 343.5,336.5 337.5,336.5C 337.784,333.143 336.451,330.809 333.5,329.5C 332.272,326.925 330.605,324.592 328.5,322.5C 330.856,319.978 333.023,317.312 335,314.5C 335.692,313.563 335.525,312.897 334.5,312.5C 334.5,312.167 334.5,311.833 334.5,311.5C 334.833,311.5 335.167,311.5 335.5,311.5C 337.5,311.5 339.5,311.5 341.5,311.5C 341.5,309.833 341.5,308.167 341.5,306.5C 341.5,303.833 341.5,301.167 341.5,298.5C 317.339,297.502 293.006,297.169 268.5,297.5C 268.5,287.833 268.5,278.167 268.5,268.5C 279.121,268.807 288.621,265.807 297,259.5C 298.044,257.285 298.71,254.952 299,252.5C 299.923,242.426 299.59,232.426 298,222.5C 296.786,220.951 295.286,219.785 293.5,219C 285.214,217.546 276.881,217.213 268.5,218C 262.024,218.644 258.358,222.144 257.5,228.5C 256.523,231.287 256.19,234.287 256.5,237.5C 248.167,237.5 239.833,237.5 231.5,237.5C 231.666,230.825 231.5,224.158 231,217.5C 228.319,213.238 224.486,210.571 219.5,209.5C 219.5,208.833 219.5,208.167 219.5,207.5C 222.85,207.335 226.183,207.502 229.5,208C 230.833,208.667 230.833,209.333 229.5,210C 233.379,212.63 235.712,211.797 236.5,207.5C 237.5,207.5 238.5,207.5 239.5,207.5C 239.5,206.5 239.5,205.5 239.5,204.5C 234.167,204.5 228.833,204.5 223.5,204.5C 223.5,202.5 223.5,200.5 223.5,198.5C 249.486,197.744 277.486,196.744 307.5,195.5C 311.893,195.491 315.893,194.824 319.5,193.5C 327.507,193.666 335.507,193.5 343.5,193C 340.635,192.817 337.969,192.317 335.5,191.5C 349.171,191.667 362.837,191.5 376.5,191C 377.428,190.612 378.095,189.945 378.5,189C 377.237,186.536 375.237,185.37 372.5,185.5C 371.833,183.5 371.167,181.5 370.5,179.5C 369.5,179.5 368.5,179.5 367.5,179.5C 367.214,177.723 366.547,176.056 365.5,174.5C 367.051,170.71 366.384,170.044 363.5,172.5C 362.246,170.741 362.579,169.241 364.5,168C 363.552,167.517 362.552,167.351 361.5,167.5C 361.719,166.325 361.386,165.325 360.5,164.5C 359.719,165.737 358.719,166.737 357.5,167.5C 357.167,167 356.833,166.5 356.5,166C 357.794,164.04 359.46,162.373 361.5,161C 347.658,160.716 333.658,160.55 319.5,160.5C 346.336,159.833 373.336,159.167 400.5,158.5C 392.275,158.142 383.775,158.142 375,158.5C 366.472,158.498 358.305,157.831 350.5,156.5C 367.009,156.83 383.342,156.496 399.5,155.5 Z"/></g>
<g><path style="opacity:1" fill="#4988ab" d="M 220.5,191.5 C 258.833,191.5 297.167,191.5 335.5,191.5C 337.969,192.317 340.635,192.817 343.5,193C 335.507,193.5 327.507,193.666 319.5,193.5C 286.15,194.16 253.15,193.493 220.5,191.5 Z"/></g>
<g><path style="opacity:1" fill="#306f8e" d="M 220.5,191.5 C 253.15,193.493 286.15,194.16 319.5,193.5C 315.893,194.824 311.893,195.491 307.5,195.5C 277.486,196.744 249.486,197.744 223.5,198.5C 223.5,200.5 223.5,202.5 223.5,204.5C 228.833,204.5 234.167,204.5 239.5,204.5C 239.5,205.5 239.5,206.5 239.5,207.5C 238.5,207.5 237.5,207.5 236.5,207.5C 235.712,211.797 233.379,212.63 229.5,210C 230.833,209.333 230.833,208.667 229.5,208C 226.183,207.502 222.85,207.335 219.5,207.5C 219.179,201.974 219.512,196.64 220.5,191.5 Z"/></g>
<g><path style="opacity:1" fill="#232348" d="M 417.5,216.5 C 411.588,214.711 405.922,215.211 400.5,218C 402.708,218.191 404.708,218.691 406.5,219.5C 395.638,220.17 394.971,218.336 404.5,214C 408.182,213.778 411.848,214.111 415.5,215C 416.416,215.278 417.082,215.778 417.5,216.5 Z"/></g>
<g><path style="opacity:1" fill="#030941" d="M 417.5,216.5 C 418.959,216.433 420.292,216.766 421.5,217.5C 422.087,218.767 422.087,219.767 421.5,220.5C 418.242,219.583 414.909,219.249 411.5,219.5C 409.833,219.5 408.167,219.5 406.5,219.5C 404.708,218.691 402.708,218.191 400.5,218C 405.922,215.211 411.588,214.711 417.5,216.5 Z"/></g>
<g><path style="opacity:1" fill="#15193f" d="M 421.5,217.5 C 429.119,220.617 436.119,224.783 442.5,230C 441.833,230.167 441.167,230.333 440.5,230.5C 431.253,225.422 421.586,221.755 411.5,219.5C 414.909,219.249 418.242,219.583 421.5,220.5C 422.087,219.767 422.087,218.767 421.5,217.5 Z"/></g>
<g><path style="opacity:1" fill="#96bac4" d="M 117.5,221.5 C 123.979,220.509 130.646,220.176 137.5,220.5C 137.83,237.675 137.497,254.675 136.5,271.5C 136.5,254.833 136.5,238.167 136.5,221.5C 130.167,221.5 123.833,221.5 117.5,221.5 Z"/></g>
<g><path style="opacity:1" fill="#eff3f7" d="M 395.5,214.5 C 395.549,220.14 395.215,225.807 394.5,231.5C 403.017,231.174 411.35,231.507 419.5,232.5C 412.167,232.5 404.833,232.5 397.5,232.5C 397.5,233.833 397.5,235.167 397.5,236.5C 397.5,238.167 397.5,239.833 397.5,241.5C 397.158,242.338 396.492,242.672 395.5,242.5C 393.5,242.5 391.5,242.5 389.5,242.5C 389.167,314.5 388.833,314.5 388.5,242.5C 384.033,242.133 379.7,242.633 375.5,244C 366.984,250.426 358.651,257.093 350.5,264C 352.134,264.494 353.801,264.66 355.5,264.5C 356.919,265.451 358.585,265.784 360.5,265.5C 360.517,267.028 361.184,267.528 362.5,267C 368.326,262.587 374.326,258.42 380.5,254.5C 381.452,256.045 381.785,257.712 381.5,259.5C 381.5,259.833 381.5,260.167 381.5,260.5C 375.811,263.676 370.477,267.342 365.5,271.5C 363.059,272.084 361.559,273.417 361,275.5C 363.015,274.303 364.849,272.97 366.5,271.5C 371.139,268.845 375.806,266.179 380.5,263.5C 381.452,265.045 381.785,266.712 381.5,268.5C 374.38,273.113 367.38,277.946 360.5,283C 366.752,279.874 373.085,276.707 379.5,273.5C 379.5,275.167 379.5,276.833 379.5,278.5C 378.5,278.833 377.833,279.5 377.5,280.5C 371.387,284.062 365.387,287.896 359.5,292C 365.872,289.308 371.872,285.808 377.5,281.5C 378.82,284.428 379.486,287.761 379.5,291.5C 379.167,294.833 378.833,298.167 378.5,301.5C 373.521,302.995 368.855,304.995 364.5,307.5C 363.417,307.539 362.417,307.873 361.5,308.5C 358.227,318.21 360.561,326.043 368.5,332C 370.405,333.421 372.405,334.588 374.5,335.5C 377.008,337.924 380.008,339.59 383.5,340.5C 410.318,342.062 437.318,342.728 464.5,342.5C 450.673,343.331 436.673,343.831 422.5,344C 423.056,344.383 423.389,344.883 423.5,345.5C 421.585,345.216 419.919,345.549 418.5,346.5C 397.551,351.511 378.551,347.511 361.5,334.5C 360.526,336.743 360.192,339.076 360.5,341.5C 357.941,341.198 355.607,341.532 353.5,342.5C 351.896,341.713 351.229,340.38 351.5,338.5C 327.502,338.502 303.502,338.502 279.5,338.5C 276.41,338.522 273.743,339.188 271.5,340.5C 270.5,340.5 269.5,340.5 268.5,340.5C 267.167,338.833 265.833,337.167 264.5,335.5C 265.833,335.5 267.167,335.5 268.5,335.5C 282.99,336.496 297.657,336.829 312.5,336.5C 315.5,336.5 318.5,336.5 321.5,336.5C 323.833,336.5 326.167,336.5 328.5,336.5C 331.5,336.5 334.5,336.5 337.5,336.5C 343.5,336.5 349.5,336.5 355.5,336.5C 355.5,313.833 355.5,291.167 355.5,268.5C 349.369,268.641 343.369,267.807 337.5,266C 332.065,264.231 328.232,260.731 326,255.5C 325.333,244.833 325.333,234.167 326,223.5C 326.93,221.448 328.43,219.948 330.5,219C 340.167,217 349.833,217 359.5,219C 366.947,223.342 369.614,229.842 367.5,238.5C 375.833,238.5 384.167,238.5 392.5,238.5C 392.334,231.825 392.5,225.158 393,218.5C 393.608,216.934 394.442,215.6 395.5,214.5 Z"/></g>
<g><path style="opacity:1" fill="#515379" d="M 419.5,232.5 C 427.684,232.174 435.684,232.508 443.5,233.5C 428.496,233.333 413.496,233.5 398.5,234C 402.688,234.176 406.688,234.676 410.5,235.5C 406.298,235.183 402.298,235.517 398.5,236.5C 398.167,236.5 397.833,236.5 397.5,236.5C 397.5,235.167 397.5,233.833 397.5,232.5C 404.833,232.5 412.167,232.5 419.5,232.5 Z"/></g>
<g><path style="opacity:1" fill="#eff1f5" d="M 398.5,236.5 C 402.298,235.517 406.298,235.183 410.5,235.5C 421.505,235.333 432.505,235.5 443.5,236C 444.942,236.377 445.942,237.21 446.5,238.5C 436.161,238.334 425.828,238.5 415.5,239C 426.184,239.401 436.85,240.068 447.5,241C 441.141,241.169 434.807,241.669 428.5,242.5C 433.792,243.495 439.125,243.828 444.5,243.5C 446.167,243.5 447.833,243.5 449.5,243.5C 444.593,245.289 439.26,246.122 433.5,246C 439.157,246.499 444.824,246.666 450.5,246.5C 450.5,248.5 450.5,250.5 450.5,252.5C 448.833,252.5 447.167,252.5 445.5,252.5C 445.616,249.09 443.95,247.756 440.5,248.5C 440.5,249.833 440.5,251.167 440.5,252.5C 438.5,252.5 436.5,252.5 434.5,252.5C 433.833,252.5 433.5,252.167 433.5,251.5C 433.5,250.5 433.5,249.5 433.5,248.5C 431.833,248.5 430.167,248.5 428.5,248.5C 428.5,249.833 428.5,251.167 428.5,252.5C 426.167,252.5 423.833,252.5 421.5,252.5C 421.616,249.09 419.95,247.756 416.5,248.5C 416.5,249.833 416.5,251.167 416.5,252.5C 412.167,252.5 407.833,252.5 403.5,252.5C 404.211,246.305 402.544,240.972 398.5,236.5 Z"/></g>
<g><path style="opacity:1" fill="#6e73a0" d="M 454.5,230.5 C 452.92,232.717 451.92,235.384 451.5,238.5C 450.893,238.376 450.56,238.043 450.5,237.5C 451.473,235.052 451.806,232.385 451.5,229.5C 452.791,229.263 453.791,229.596 454.5,230.5 Z"/></g>
<g><path style="opacity:1" fill="#8baeba" d="M 257.5,228.5 C 257.5,231.833 257.5,235.167 257.5,238.5C 248.651,238.826 239.984,238.493 231.5,237.5C 239.833,237.5 248.167,237.5 256.5,237.5C 256.19,234.287 256.523,231.287 257.5,228.5 Z"/></g>
<g><path style="opacity:1" fill="#307288" d="M 117.5,221.5 C 123.833,221.5 130.167,221.5 136.5,221.5C 136.5,238.167 136.5,254.833 136.5,271.5C 130.355,272.49 124.022,272.823 117.5,272.5C 119.472,261.049 114.806,255.049 103.5,254.5C 94.3483,253.506 85.015,253.173 75.5,253.5C 75.1872,257.042 75.5206,260.375 76.5,263.5C 76.7084,267.121 77.7084,270.454 79.5,273.5C 78.1805,272.058 76.5138,271.392 74.5,271.5C 74.2013,265.972 73.0346,260.638 71,255.5C 70.1697,260.808 69.6697,266.141 69.5,271.5C 67.8333,271.5 66.1667,271.5 64.5,271.5C 64.1667,267.5 63.8333,267.5 63.5,271.5C 59.7102,272.101 56.5435,271.101 54,268.5C 52.2215,269.479 50.5548,269.146 49,267.5C 47.2302,268.276 45.3969,268.11 43.5,267C 44.5634,265.812 45.8967,265.312 47.5,265.5C 47.3505,264.448 47.5172,263.448 48,262.5C 49.2682,262.616 50.6015,262.949 52,263.5C 52.1667,262.833 52.3333,262.167 52.5,261.5C 52.3783,258.874 51.3783,256.874 49.5,255.5C 50.9966,248.792 50.8299,242.125 49,235.5C 47.0446,232.283 44.5446,229.617 41.5,227.5C 45.2644,227.588 48.7644,228.588 52,230.5C 53.1227,238.797 53.6227,247.13 53.5,255.5C 54.8333,255.5 56.1667,255.5 57.5,255.5C 57.5,250.167 57.5,244.833 57.5,239.5C 58.5,239.5 59.5,239.5 60.5,239.5C 60.0617,236.107 60.8951,233.107 63,230.5C 63.1667,232 63.3333,233.5 63.5,235C 62.0086,242.422 61.1753,249.922 61,257.5C 60.1667,259.167 59.3333,260.833 58.5,262.5C 60.0453,263.452 61.712,263.785 63.5,263.5C 63.2148,261.712 63.5481,260.045 64.5,258.5C 65.1924,259.025 65.6924,259.692 66,260.5C 66.4396,258.924 67.273,257.59 68.5,256.5C 67.8333,254.5 67.1667,252.5 66.5,250.5C 65.675,249.614 64.675,249.281 63.5,249.5C 63.5,247.833 63.5,246.167 63.5,244.5C 65.1992,244.34 66.8659,244.506 68.5,245C 70.7452,247.087 73.4119,248.421 76.5,249C 76.1667,249.333 75.8333,249.667 75.5,250C 87.5399,250.369 99.5399,251.202 111.5,252.5C 111.5,250.833 111.5,249.167 111.5,247.5C 116.875,247.828 122.208,247.495 127.5,246.5C 123.333,246.167 119.167,245.833 115,245.5C 103.177,246.503 91.3432,246.503 79.5,245.5C 79.5,244.5 79.5,243.5 79.5,242.5C 87.1739,242.666 94.8406,242.5 102.5,242C 101.167,241.333 101.167,240.667 102.5,240C 93.8397,239.5 85.1731,239.334 76.5,239.5C 76.5,238.5 76.5,237.5 76.5,236.5C 87.3464,236.828 98.0131,236.494 108.5,235.5C 110.963,235.219 113.13,234.219 115,232.5C 116.622,229.013 117.455,225.346 117.5,221.5 Z"/></g>
<g><path style="opacity:1" fill="#91b6c1" d="M 76.5,228.5 C 76.5,230.833 76.5,233.167 76.5,235.5C 87.1667,235.5 97.8333,235.5 108.5,235.5C 98.0131,236.494 87.3464,236.828 76.5,236.5C 75.1667,233.833 75.1667,231.167 76.5,228.5 Z"/></g>
<g><path style="opacity:1" fill="#316f90" d="M 130.5,223.5 C 131.5,223.5 132.5,223.5 133.5,223.5C 133.5,239.5 133.5,255.5 133.5,271.5C 132.167,271.5 130.833,271.5 129.5,271.5C 130.166,255.509 130.5,239.509 130.5,223.5 Z"/></g>
<g><path style="opacity:1" fill="#050b43" d="M 353.5,240.5 C 350.076,243.406 346.243,245.74 342,247.5C 340.748,244.634 340.748,241.634 342,238.5C 345.112,235.899 347.612,232.899 349.5,229.5C 351.845,226.902 354.678,224.902 358,223.5C 362.126,225.132 363.459,228.132 362,232.5C 359.297,235.371 356.464,238.038 353.5,240.5 Z"/></g>
<g><path style="opacity:1" fill="#9192a3" d="M 446.5,238.5 C 447.806,239.467 448.473,240.801 448.5,242.5C 446.901,242.232 445.568,242.566 444.5,243.5C 439.125,243.828 433.792,243.495 428.5,242.5C 434.807,241.669 441.141,241.169 447.5,241C 436.85,240.068 426.184,239.401 415.5,239C 425.828,238.5 436.161,238.334 446.5,238.5 Z"/></g>
<g><path style="opacity:1" fill="#0e1344" d="M 349.5,229.5 C 347.612,232.899 345.112,235.899 342,238.5C 340.748,241.634 340.748,244.634 342,247.5C 346.243,245.74 350.076,243.406 353.5,240.5C 348.365,247.315 344.032,254.648 340.5,262.5C 334.629,261.469 331.462,258.136 331,252.5C 335.266,243.301 341.432,235.634 349.5,229.5 Z"/></g>
<g><path style="opacity:1" fill="#020643" d="M 381.5,273.5 C 382.562,271.901 382.562,270.234 381.5,268.5C 382.275,265.657 382.275,262.991 381.5,260.5C 381.5,260.167 381.5,259.833 381.5,259.5C 382.811,257.44 382.811,255.274 381.5,253C 383.632,251.38 383.965,249.546 382.5,247.5C 371.853,247.79 371.853,246.79 382.5,244.5C 383.772,244.57 384.938,244.903 386,245.5C 386.667,260.5 386.667,275.5 386,290.5C 385.108,294.173 383.608,294.34 381.5,291C 382.167,289.667 382.833,288.333 383.5,287C 380.856,284.725 380.856,282.391 383.5,280C 381.987,278.121 381.321,275.954 381.5,273.5 Z"/></g>
<g><path style="opacity:1" fill="#020844" d="M 397.5,241.5 C 401.78,243.353 402.613,246.353 400,250.5C 398.901,247.956 397.735,247.956 396.5,250.5C 397.277,252.539 398.443,253.205 400,252.5C 400.964,254.365 402.131,256.032 403.5,257.5C 401.167,257.5 398.833,257.5 396.5,257.5C 395.719,264.153 396.052,270.82 397.5,277.5C 398.298,277.043 398.631,276.376 398.5,275.5C 399.166,272.311 399.833,268.977 400.5,265.5C 401.492,269.783 401.826,274.116 401.5,278.5C 400.761,278.369 400.094,278.536 399.5,279C 402.032,280.765 404.699,282.265 407.5,283.5C 407.5,284.167 407.833,284.5 408.5,284.5C 408.737,285.791 408.404,286.791 407.5,287.5C 404.569,288.006 401.735,288.006 399,287.5C 398.5,287.667 398,287.833 397.5,288C 398.416,288.278 399.082,288.778 399.5,289.5C 397.088,289.244 395.421,290.244 394.5,292.5C 393.522,292.023 392.689,291.357 392,290.5C 392.167,276.592 392.001,263.426 391.5,251C 391.134,247.236 392.467,244.403 395.5,242.5C 396.492,242.672 397.158,242.338 397.5,241.5 Z"/></g>
<g><path style="opacity:1" fill="#141846" d="M 397.5,236.5 C 397.833,236.5 398.167,236.5 398.5,236.5C 402.544,240.972 404.211,246.305 403.5,252.5C 407.833,252.5 412.167,252.5 416.5,252.5C 416.5,251.167 416.5,249.833 416.5,248.5C 419.95,247.756 421.616,249.09 421.5,252.5C 423.833,252.5 426.167,252.5 428.5,252.5C 428.5,251.167 428.5,249.833 428.5,248.5C 430.167,248.5 431.833,248.5 433.5,248.5C 433.5,249.5 433.5,250.5 433.5,251.5C 430.821,251.525 429.488,252.858 429.5,255.5C 424.821,255.334 420.155,255.501 415.5,256C 426.161,256.5 436.828,256.667 447.5,256.5C 447.5,256.833 447.5,257.167 447.5,257.5C 434.829,257.333 422.162,257.5 409.5,258C 407.1,258.744 404.767,259.577 402.5,260.5C 401.142,261.626 399.808,261.626 398.5,260.5C 399.947,259.065 401.614,258.065 403.5,257.5C 402.131,256.032 400.964,254.365 400,252.5C 398.443,253.205 397.277,252.539 396.5,250.5C 397.735,247.956 398.901,247.956 400,250.5C 402.613,246.353 401.78,243.353 397.5,241.5C 397.5,239.833 397.5,238.167 397.5,236.5 Z"/></g>
<g><path style="opacity:1" fill="#080e3c" d="M 445.5,252.5 C 445.5,253.5 445.5,254.5 445.5,255.5C 444.469,254.645 443.303,253.978 442,253.5C 439.744,255.085 437.244,255.752 434.5,255.5C 434.5,254.5 434.5,253.5 434.5,252.5C 436.5,252.5 438.5,252.5 440.5,252.5C 440.5,251.167 440.5,249.833 440.5,248.5C 443.95,247.756 445.616,249.09 445.5,252.5 Z"/></g>
<g><path style="opacity:1" fill="#303453" d="M 449.5,243.5 C 451.792,247.206 452.126,251.206 450.5,255.5C 448.833,255.5 447.167,255.5 445.5,255.5C 445.5,254.5 445.5,253.5 445.5,252.5C 447.167,252.5 448.833,252.5 450.5,252.5C 450.5,250.5 450.5,248.5 450.5,246.5C 444.824,246.666 439.157,246.499 433.5,246C 439.26,246.122 444.593,245.289 449.5,243.5 Z"/></g>
<g><path style="opacity:1" fill="#aac9d5" d="M 103.5,254.5 C 94.5,254.5 85.5,254.5 76.5,254.5C 76.5,257.5 76.5,260.5 76.5,263.5C 75.5206,260.375 75.1872,257.042 75.5,253.5C 85.015,253.173 94.3483,253.506 103.5,254.5 Z"/></g>
<g><path style="opacity:1" fill="#87a9b1" d="M 180.5,254.5 C 172.167,254.5 163.833,254.5 155.5,254.5C 155.821,259.695 155.487,264.695 154.5,269.5C 154.5,264.167 154.5,258.833 154.5,253.5C 163.349,253.174 172.016,253.507 180.5,254.5 Z"/></g>
<g><path style="opacity:1" fill="#040550" d="M 433.5,251.5 C 433.5,252.167 433.833,252.5 434.5,252.5C 434.5,253.5 434.5,254.5 434.5,255.5C 437.244,255.752 439.744,255.085 442,253.5C 443.303,253.978 444.469,254.645 445.5,255.5C 447.167,255.5 448.833,255.5 450.5,255.5C 450.548,256.507 449.548,256.84 447.5,256.5C 436.828,256.667 426.161,256.5 415.5,256C 420.155,255.501 424.821,255.334 429.5,255.5C 429.488,252.858 430.821,251.525 433.5,251.5 Z"/></g>
<g><path style="opacity:1" fill="#0a1043" d="M 454.5,230.5 C 455.15,230.804 455.817,231.137 456.5,231.5C 457.331,238.811 457.831,246.144 458,253.5C 458.717,254.044 459.217,254.711 459.5,255.5C 459.34,257.153 458.674,258.486 457.5,259.5C 454.365,257.977 451.032,257.31 447.5,257.5C 447.5,257.167 447.5,256.833 447.5,256.5C 449.548,256.84 450.548,256.507 450.5,255.5C 452.126,251.206 451.792,247.206 449.5,243.5C 447.833,243.5 446.167,243.5 444.5,243.5C 445.568,242.566 446.901,242.232 448.5,242.5C 448.473,240.801 447.806,239.467 446.5,238.5C 445.942,237.21 444.942,236.377 443.5,236C 432.505,235.5 421.505,235.333 410.5,235.5C 406.688,234.676 402.688,234.176 398.5,234C 413.496,233.5 428.496,233.333 443.5,233.5C 445.996,234.58 448.33,235.914 450.5,237.5C 450.56,238.043 450.893,238.376 451.5,238.5C 451.92,235.384 452.92,232.717 454.5,230.5 Z"/></g>
<g><path style="opacity:1" fill="#d9dceb" d="M 380.5,249.5 C 381.645,250.793 381.311,251.959 379.5,253C 373.267,257.415 366.933,261.582 360.5,265.5C 358.585,265.784 356.919,265.451 355.5,264.5C 356.873,264.657 358.207,264.49 359.5,264C 366.21,258.653 373.21,253.82 380.5,249.5 Z"/></g>
<g><path style="opacity:1" fill="#898ca3" d="M 461.5,258.5 C 463.415,258.216 465.081,258.549 466.5,259.5C 466.328,260.492 466.662,261.158 467.5,261.5C 467.5,262.167 467.5,262.833 467.5,263.5C 466.883,263.611 466.383,263.944 466,264.5C 465.29,263.027 464.124,262.36 462.5,262.5C 462.567,261.041 462.234,259.708 461.5,258.5 Z"/></g>
<g><path style="opacity:1" fill="#313051" d="M 382.5,247.5 C 383.965,249.546 383.632,251.38 381.5,253C 382.811,255.274 382.811,257.44 381.5,259.5C 381.785,257.712 381.452,256.045 380.5,254.5C 374.326,258.42 368.326,262.587 362.5,267C 361.184,267.528 360.517,267.028 360.5,265.5C 366.933,261.582 373.267,257.415 379.5,253C 381.311,251.959 381.645,250.793 380.5,249.5C 381.167,248.833 381.833,248.167 382.5,247.5 Z"/></g>
<g><path style="opacity:1" fill="#03054a" d="M 415.5,260.5 C 426.167,260.5 436.833,260.5 447.5,260.5C 448.551,261.222 449.218,262.222 449.5,263.5C 448.833,263.5 448.167,263.5 447.5,263.5C 436.833,263.5 426.167,263.5 415.5,263.5C 415.5,262.5 415.5,261.5 415.5,260.5 Z"/></g>
<g><path style="opacity:1" fill="#323057" d="M 381.5,260.5 C 382.275,262.991 382.275,265.657 381.5,268.5C 381.785,266.712 381.452,265.045 380.5,263.5C 375.806,266.179 371.139,268.845 366.5,271.5C 366.167,271.5 365.833,271.5 365.5,271.5C 370.477,267.342 375.811,263.676 381.5,260.5 Z"/></g>
<g><path style="opacity:1" fill="#d7dde4" d="M 447.5,257.5 C 451.032,257.31 454.365,257.977 457.5,259.5C 458.85,260.824 458.683,261.824 457,262.5C 453.974,261.128 450.807,260.462 447.5,260.5C 436.833,260.5 426.167,260.5 415.5,260.5C 412.833,260.5 410.167,260.5 407.5,260.5C 407.472,265.862 407.806,271.195 408.5,276.5C 408.802,279.059 408.468,281.393 407.5,283.5C 404.699,282.265 402.032,280.765 399.5,279C 400.094,278.536 400.761,278.369 401.5,278.5C 402.5,278.5 403.5,278.5 404.5,278.5C 403.369,273.28 403.369,268.113 404.5,263C 403.906,262.536 403.239,262.369 402.5,262.5C 402.5,261.833 402.5,261.167 402.5,260.5C 404.767,259.577 407.1,258.744 409.5,258C 422.162,257.5 434.829,257.333 447.5,257.5 Z"/></g>
<g><path style="opacity:1" fill="#080f43" d="M 415.5,260.5 C 415.5,261.5 415.5,262.5 415.5,263.5C 426.167,263.5 436.833,263.5 447.5,263.5C 449.259,269.692 451.593,275.692 454.5,281.5C 441.517,282.499 428.517,282.832 415.5,282.5C 415.5,281.167 415.5,279.833 415.5,278.5C 426.167,277.833 436.833,277.167 447.5,276.5C 447.281,277.675 447.614,278.675 448.5,279.5C 449.747,277.994 449.747,276.494 448.5,275C 425.863,274.497 425.863,273.664 448.5,272.5C 448.167,271.833 447.833,271.167 447.5,270.5C 436.833,269.167 426.167,269.167 415.5,270.5C 420.802,271.329 426.136,271.829 431.5,272C 425.782,272.211 420.115,272.711 414.5,273.5C 413.984,269.95 412.984,266.617 411.5,263.5C 410.914,263.709 410.414,264.043 410,264.5C 409.229,270.741 410.062,276.741 412.5,282.5C 411.5,282.5 410.5,282.5 409.5,282.5C 409.795,280.265 409.461,278.265 408.5,276.5C 407.806,271.195 407.472,265.862 407.5,260.5C 410.167,260.5 412.833,260.5 415.5,260.5 Z"/></g>
<g><path style="opacity:1" fill="#2d7189" d="M 180.5,254.5 C 180.334,260.842 180.5,267.175 181,273.5C 183.496,278.83 187.663,281.83 193.5,282.5C 193.5,287.5 193.5,292.5 193.5,297.5C 155.663,297.168 117.996,297.502 80.5,298.5C 80.5,301.167 80.5,303.833 80.5,306.5C 96.1667,306.5 111.833,306.5 127.5,306.5C 131.217,308.066 135.217,309.232 139.5,310C 138.5,311.667 137.167,313 135.5,314C 134.974,317.721 135.641,321.388 137.5,325C 137.07,326.434 136.236,327.601 135,328.5C 133.915,326.627 132.582,324.96 131,323.5C 130.503,321.19 130.337,318.857 130.5,316.5C 128.678,316.169 127.011,315.502 125.5,314.5C 124.933,312.97 124.267,311.47 123.5,310C 120.854,309.503 118.187,309.336 115.5,309.5C 114.167,314.167 112.833,318.833 111.5,323.5C 108.751,327.381 106.751,331.715 105.5,336.5C 104.833,336.5 104.167,336.5 103.5,336.5C 103.806,333.615 103.473,330.948 102.5,328.5C 99.5,328.5 96.5,328.5 93.5,328.5C 93.5,327.5 93.5,326.5 93.5,325.5C 95.8333,325.5 98.1667,325.5 100.5,325.5C 100.5,323.167 100.5,320.833 100.5,318.5C 98.1432,318.663 95.8098,318.497 93.5,318C 96.4816,317.502 99.4816,317.335 102.5,317.5C 102.5,315.167 102.5,312.833 102.5,310.5C 96.3554,309.51 90.0221,309.177 83.5,309.5C 83.5,318.5 83.5,327.5 83.5,336.5C 62.1667,336.5 40.8333,336.5 19.5,336.5C 19.5,313.833 19.5,291.167 19.5,268.5C 29.2761,268.64 38.2761,266.14 46.5,261C 47.6087,259.124 48.6087,257.291 49.5,255.5C 51.3783,256.874 52.3783,258.874 52.5,261.5C 52.3333,262.167 52.1667,262.833 52,263.5C 50.6015,262.949 49.2682,262.616 48,262.5C 47.5172,263.448 47.3505,264.448 47.5,265.5C 45.8967,265.312 44.5634,265.812 43.5,267C 45.3969,268.11 47.2302,268.276 49,267.5C 50.5548,269.146 52.2215,269.479 54,268.5C 56.5435,271.101 59.7102,272.101 63.5,271.5C 63.8333,267.5 64.1667,267.5 64.5,271.5C 66.1667,271.5 67.8333,271.5 69.5,271.5C 69.6697,266.141 70.1697,260.808 71,255.5C 73.0346,260.638 74.2013,265.972 74.5,271.5C 76.5138,271.392 78.1805,272.058 79.5,273.5C 83.1498,276.777 87.4832,278.611 92.5,279C 108.167,279.667 123.833,279.667 139.5,279C 147.199,279.748 152.199,276.581 154.5,269.5C 155.487,264.695 155.821,259.695 155.5,254.5C 163.833,254.5 172.167,254.5 180.5,254.5 Z"/></g>
<g><path style="opacity:1" fill="#64699f" d="M 403.5,257.5 C 401.614,258.065 399.947,259.065 398.5,260.5C 399.808,261.626 401.142,261.626 402.5,260.5C 402.5,261.167 402.5,261.833 402.5,262.5C 400.856,262.286 399.356,262.62 398,263.5C 397.503,267.524 397.669,271.524 398.5,275.5C 398.631,276.376 398.298,277.043 397.5,277.5C 396.052,270.82 395.719,264.153 396.5,257.5C 398.833,257.5 401.167,257.5 403.5,257.5 Z"/></g>
<g><path style="opacity:1" fill="#0c133c" d="M 402.5,262.5 C 403.239,262.369 403.906,262.536 404.5,263C 403.369,268.113 403.369,273.28 404.5,278.5C 403.5,278.5 402.5,278.5 401.5,278.5C 401.826,274.116 401.492,269.783 400.5,265.5C 399.833,268.977 399.166,272.311 398.5,275.5C 397.669,271.524 397.503,267.524 398,263.5C 399.356,262.62 400.856,262.286 402.5,262.5 Z"/></g>
<g><path style="opacity:1" fill="#efeff6" d="M 447.5,263.5 C 448.167,263.5 448.833,263.5 449.5,263.5C 452.48,264.266 455.48,265.099 458.5,266C 460.692,269.324 462.359,272.824 463.5,276.5C 463.5,279.167 463.5,281.833 463.5,284.5C 445.835,283.184 428.168,283.184 410.5,284.5C 412.167,283.833 413.833,283.167 415.5,282.5C 428.517,282.832 441.517,282.499 454.5,281.5C 451.593,275.692 449.259,269.692 447.5,263.5 Z"/></g>
<g><path style="opacity:1" fill="#b3b5d4" d="M 467.5,277.5 C 466.508,277.672 465.842,277.338 465.5,276.5C 463.99,272.174 463.324,267.841 463.5,263.5C 465.758,267.86 467.091,272.527 467.5,277.5 Z"/></g>
<g><path style="opacity:1" fill="#1d1f47" d="M 459.5,255.5 C 460.906,255.973 461.573,256.973 461.5,258.5C 462.234,259.708 462.567,261.041 462.5,262.5C 464.124,262.36 465.29,263.027 466,264.5C 466.383,263.944 466.883,263.611 467.5,263.5C 466.049,269.058 467.883,273.058 473,275.5C 473.085,270.178 471.752,265.178 469,260.5C 468.617,261.056 468.117,261.389 467.5,261.5C 466.662,261.158 466.328,260.492 466.5,259.5C 468.792,259.244 470.959,259.577 473,260.5C 474.475,266.032 474.641,271.532 473.5,277C 471.527,277.495 469.527,277.662 467.5,277.5C 467.091,272.527 465.758,267.86 463.5,263.5C 463.324,267.841 463.99,272.174 465.5,276.5C 464.833,276.5 464.167,276.5 463.5,276.5C 462.359,272.824 460.692,269.324 458.5,266C 455.48,265.099 452.48,264.266 449.5,263.5C 449.218,262.222 448.551,261.222 447.5,260.5C 450.807,260.462 453.974,261.128 457,262.5C 458.683,261.824 458.85,260.824 457.5,259.5C 458.674,258.486 459.34,257.153 459.5,255.5 Z"/></g>
<g><path style="opacity:1" fill="#090e4c" d="M 467.5,263.5 C 467.5,262.833 467.5,262.167 467.5,261.5C 468.117,261.389 468.617,261.056 469,260.5C 471.752,265.178 473.085,270.178 473,275.5C 467.883,273.058 466.049,269.058 467.5,263.5 Z"/></g>
<g><path style="opacity:1" fill="#797a81" d="M 365.5,271.5 C 365.833,271.5 366.167,271.5 366.5,271.5C 364.849,272.97 363.015,274.303 361,275.5C 361.559,273.417 363.059,272.084 365.5,271.5 Z"/></g>
<g><path style="opacity:1" fill="#403f5e" d="M 381.5,268.5 C 382.562,270.234 382.562,271.901 381.5,273.5C 380.833,275.167 380.167,276.833 379.5,278.5C 379.5,276.833 379.5,275.167 379.5,273.5C 373.085,276.707 366.752,279.874 360.5,283C 367.38,277.946 374.38,273.113 381.5,268.5 Z"/></g>
<g><path style="opacity:1" fill="#000547" d="M 415.5,282.5 C 414.5,282.5 413.5,282.5 412.5,282.5C 410.062,276.741 409.229,270.741 410,264.5C 410.414,264.043 410.914,263.709 411.5,263.5C 412.984,266.617 413.984,269.95 414.5,273.5C 420.115,272.711 425.782,272.211 431.5,272C 426.136,271.829 420.802,271.329 415.5,270.5C 426.167,269.167 436.833,269.167 447.5,270.5C 447.833,271.167 448.167,271.833 448.5,272.5C 425.863,273.664 425.863,274.497 448.5,275C 449.747,276.494 449.747,277.994 448.5,279.5C 447.614,278.675 447.281,277.675 447.5,276.5C 436.833,277.167 426.167,277.833 415.5,278.5C 415.5,279.833 415.5,281.167 415.5,282.5 Z"/></g>
<g><path style="opacity:1" fill="#454062" d="M 377.5,280.5 C 377.5,280.833 377.5,281.167 377.5,281.5C 371.872,285.808 365.872,289.308 359.5,292C 365.387,287.896 371.387,284.062 377.5,280.5 Z"/></g>
<g><path style="opacity:1" fill="#dfe3f0" d="M 464.5,292.5 C 464.332,298.034 463.665,303.367 462.5,308.5C 462.5,303.833 462.5,299.167 462.5,294.5C 460.272,291.55 457.272,289.884 453.5,289.5C 453.5,292.167 453.5,294.833 453.5,297.5C 453.5,298.5 453.5,299.5 453.5,300.5C 453.5,304.167 453.5,307.833 453.5,311.5C 452.508,304.352 452.175,297.019 452.5,289.5C 448.65,288.974 444.816,288.307 441,287.5C 437.539,288.218 434.039,288.718 430.5,289C 429.208,292.571 428.542,296.405 428.5,300.5C 428.517,304.416 428.85,308.25 429.5,312C 437.493,312.5 445.493,312.666 453.5,312.5C 455.167,312.5 456.833,312.5 458.5,312.5C 460.565,312.483 462.565,312.15 464.5,311.5C 468.833,311.5 473.167,311.5 477.5,311.5C 471.926,313.453 465.926,314.12 459.5,313.5C 447.5,313.5 435.5,313.5 423.5,313.5C 422.167,312.833 420.833,312.167 419.5,311.5C 418.411,304.883 418.244,298.217 419,291.5C 420.214,289.951 421.714,288.785 423.5,288C 435.894,285.879 448.227,286.212 460.5,289C 462.324,289.66 463.657,290.827 464.5,292.5 Z"/></g>
<g><path style="opacity:1" fill="#131745" d="M 395.5,242.5 C 392.467,244.403 391.134,247.236 391.5,251C 392.001,263.426 392.167,276.592 392,290.5C 392.689,291.357 393.522,292.023 394.5,292.5C 395.421,290.244 397.088,289.244 399.5,289.5C 400.609,289.557 401.609,289.89 402.5,290.5C 403.73,292.297 404.396,294.297 404.5,296.5C 408.226,296.823 411.893,296.489 415.5,295.5C 414.014,291.766 411.348,289.432 407.5,288.5C 407.5,288.167 407.5,287.833 407.5,287.5C 408.404,286.791 408.737,285.791 408.5,284.5C 409.167,284.5 409.833,284.5 410.5,284.5C 428.168,283.184 445.835,283.184 463.5,284.5C 463.5,281.833 463.5,279.167 463.5,276.5C 464.167,276.5 464.833,276.5 465.5,276.5C 465.842,277.338 466.508,277.672 467.5,277.5C 466.628,280.421 466.628,283.421 467.5,286.5C 477.2,290.556 481.2,297.89 479.5,308.5C 474.93,309.441 470.263,309.774 465.5,309.5C 465.822,303.642 465.489,297.975 464.5,292.5C 463.657,290.827 462.324,289.66 460.5,289C 448.227,286.212 435.894,285.879 423.5,288C 421.714,288.785 420.214,289.951 419,291.5C 418.244,298.217 418.411,304.883 419.5,311.5C 420.833,312.167 422.167,312.833 423.5,313.5C 422.791,314.404 421.791,314.737 420.5,314.5C 420.216,316.415 420.549,318.081 421.5,319.5C 423.167,319.5 424.833,319.5 426.5,319.5C 426.5,319.833 426.5,320.167 426.5,320.5C 420.642,321.013 414.975,320.346 409.5,318.5C 409.167,318.833 408.833,319.167 408.5,319.5C 409.665,320.584 410.998,321.417 412.5,322C 433.164,322.5 453.831,322.667 474.5,322.5C 475.289,322.217 475.956,321.717 476.5,321C 472.848,320.501 469.182,320.335 465.5,320.5C 465.784,318.585 465.451,316.919 464.5,315.5C 468.97,314.514 473.637,314.181 478.5,314.5C 478.216,316.415 478.549,318.081 479.5,319.5C 480.167,320.833 480.833,322.167 481.5,323.5C 481.5,323.833 481.5,324.167 481.5,324.5C 472.833,324.5 464.167,324.5 455.5,324.5C 439.119,324.804 422.786,324.471 406.5,323.5C 405.791,322.596 404.791,322.263 403.5,322.5C 403.19,325.713 403.523,328.713 404.5,331.5C 405.71,331.932 406.71,332.599 407.5,333.5C 404.833,332.833 402.167,332.167 399.5,331.5C 399.449,329.43 400.115,327.597 401.5,326C 398.929,323.444 398.929,320.944 401.5,318.5C 399.969,312.542 398.303,306.542 396.5,300.5C 395.277,299.386 393.944,299.219 392.5,300C 389.182,301.731 386.682,304.231 385,307.5C 384.667,307.167 384.333,306.833 384,306.5C 383.576,308.515 382.742,310.349 381.5,312C 383.078,314.968 383.745,318.135 383.5,321.5C 385.167,321.5 386.833,321.5 388.5,321.5C 389.167,323.5 389.833,325.5 390.5,327.5C 391.077,329.652 392.244,329.985 394,328.5C 394.706,322.13 394.539,315.797 393.5,309.5C 392.325,309.281 391.325,309.614 390.5,310.5C 389.652,312.409 389.318,314.409 389.5,316.5C 389.5,317.167 389.167,317.5 388.5,317.5C 387.2,314.976 387.2,312.309 388.5,309.5C 390.249,307.469 392.249,307.135 394.5,308.5C 395.837,315.527 396.17,322.527 395.5,329.5C 394.732,330.263 394.232,331.263 394,332.5C 392.933,331.809 391.766,331.309 390.5,331C 389.308,328.645 387.641,326.812 385.5,325.5C 383.162,322.692 381.829,319.359 381.5,315.5C 380.726,314.289 379.893,314.289 379,315.5C 378.503,312.854 378.336,310.187 378.5,307.5C 374.901,308.699 371.235,309.699 367.5,310.5C 367.5,309.5 367.5,308.5 367.5,307.5C 366.5,307.5 365.5,307.5 364.5,307.5C 368.855,304.995 373.521,302.995 378.5,301.5C 378.833,298.167 379.167,294.833 379.5,291.5C 379.486,287.761 378.82,284.428 377.5,281.5C 377.5,281.167 377.5,280.833 377.5,280.5C 377.833,279.5 378.5,278.833 379.5,278.5C 380.167,276.833 380.833,275.167 381.5,273.5C 381.321,275.954 381.987,278.121 383.5,280C 380.856,282.391 380.856,284.725 383.5,287C 382.833,288.333 382.167,289.667 381.5,291C 383.608,294.34 385.108,294.173 386,290.5C 386.667,275.5 386.667,260.5 386,245.5C 384.938,244.903 383.772,244.57 382.5,244.5C 371.853,246.79 371.853,247.79 382.5,247.5C 381.833,248.167 381.167,248.833 380.5,249.5C 373.21,253.82 366.21,258.653 359.5,264C 358.207,264.49 356.873,264.657 355.5,264.5C 353.801,264.66 352.134,264.494 350.5,264C 358.651,257.093 366.984,250.426 375.5,244C 379.7,242.633 384.033,242.133 388.5,242.5C 388.833,314.5 389.167,314.5 389.5,242.5C 391.5,242.5 393.5,242.5 395.5,242.5 Z"/></g>
<g><path style="opacity:1" fill="#e7e8f0" d="M 469.5,289.5 C 472.79,290.789 475.123,293.123 476.5,296.5C 473.232,297.487 469.898,297.82 466.5,297.5C 466.5,295.5 466.5,293.5 466.5,291.5C 466.435,291.062 466.601,290.728 467,290.5C 467.419,291.672 468.085,292.672 469,293.5C 468.669,291.981 468.836,290.648 469.5,289.5 Z"/></g>
<g><path style="opacity:1" fill="#989cb3" d="M 469.5,289.5 C 468.836,290.648 468.669,291.981 469,293.5C 468.085,292.672 467.419,291.672 467,290.5C 466.601,290.728 466.435,291.062 466.5,291.5C 462.819,289.88 462.819,288.547 466.5,287.5C 467.739,287.942 468.739,288.609 469.5,289.5 Z"/></g>
<g><path style="opacity:1" fill="#f0f1f7" d="M 407.5,288.5 C 411.348,289.432 414.014,291.766 415.5,295.5C 411.893,296.489 408.226,296.823 404.5,296.5C 404.396,294.297 403.73,292.297 402.5,290.5C 404.011,289.498 405.678,288.831 407.5,288.5 Z"/></g>
<g><path style="opacity:1" fill="#9997c0" d="M 407.5,287.5 C 407.5,287.833 407.5,288.167 407.5,288.5C 405.678,288.831 404.011,289.498 402.5,290.5C 401.609,289.89 400.609,289.557 399.5,289.5C 399.082,288.778 398.416,288.278 397.5,288C 398,287.833 398.5,287.667 399,287.5C 401.735,288.006 404.569,288.006 407.5,287.5 Z"/></g>
<g><path style="opacity:1" fill="#676991" d="M 408.5,276.5 C 409.461,278.265 409.795,280.265 409.5,282.5C 410.5,282.5 411.5,282.5 412.5,282.5C 413.5,282.5 414.5,282.5 415.5,282.5C 413.833,283.167 412.167,283.833 410.5,284.5C 409.833,284.5 409.167,284.5 408.5,284.5C 407.833,284.5 407.5,284.167 407.5,283.5C 408.468,281.393 408.802,279.059 408.5,276.5 Z"/></g>
<g><path style="opacity:1" fill="#6b6b8e" d="M 462.5,294.5 C 461.596,295.209 461.263,296.209 461.5,297.5C 458.833,297.5 456.167,297.5 453.5,297.5C 453.5,294.833 453.5,292.167 453.5,289.5C 457.272,289.884 460.272,291.55 462.5,294.5 Z"/></g>
<g><path style="opacity:1" fill="#021c2d" d="M 80.5,298.5 C 117.996,297.502 155.663,297.168 193.5,297.5C 193.5,297.833 193.5,298.167 193.5,298.5C 156.107,298.794 118.441,298.794 80.5,298.5 Z"/></g>
<g><path style="opacity:1" fill="#1a2833" d="M 193.5,298.5 C 193.5,298.167 193.5,297.833 193.5,297.5C 218.5,297.5 243.5,297.5 268.5,297.5C 293.006,297.169 317.339,297.502 341.5,298.5C 292.246,299.134 242.912,299.134 193.5,298.5 Z"/></g>
<g><path style="opacity:1" fill="#030306" d="M 80.5,298.5 C 118.441,298.794 156.107,298.794 193.5,298.5C 242.912,299.134 292.246,299.134 341.5,298.5C 341.5,301.167 341.5,303.833 341.5,306.5C 317.167,306.5 292.833,306.5 268.5,306.5C 243.5,306.5 218.5,306.5 193.5,306.5C 171.5,306.5 149.5,306.5 127.5,306.5C 111.833,306.5 96.1667,306.5 80.5,306.5C 80.5,303.833 80.5,301.167 80.5,298.5 Z"/></g>
<g><path style="opacity:1" fill="#8387b8" d="M 406.5,299.5 C 409.518,299.335 412.518,299.502 415.5,300C 416.435,302.381 416.768,304.881 416.5,307.5C 413.482,307.665 410.482,307.498 407.5,307C 406.565,304.619 406.232,302.119 406.5,299.5 Z"/></g>
<g><path style="opacity:1" fill="#01083b" d="M 408.5,301.5 C 410.833,301.5 413.167,301.5 415.5,301.5C 415.5,302.833 415.5,304.167 415.5,305.5C 413.167,305.5 410.833,305.5 408.5,305.5C 408.5,304.167 408.5,302.833 408.5,301.5 Z"/></g>
<g><path style="opacity:1" fill="#6e7092" d="M 453.5,311.5 C 453.5,311.833 453.5,312.167 453.5,312.5C 445.493,312.666 437.493,312.5 429.5,312C 428.85,308.25 428.517,304.416 428.5,300.5C 428.542,296.405 429.208,292.571 430.5,289C 434.039,288.718 437.539,288.218 441,287.5C 444.816,288.307 448.65,288.974 452.5,289.5C 452.175,297.019 452.508,304.352 453.5,311.5 Z"/></g>
<g><path style="opacity:1" fill="#444668" d="M 462.5,294.5 C 462.5,299.167 462.5,303.833 462.5,308.5C 461.5,310.167 460.167,311.5 458.5,312.5C 456.833,312.5 455.167,312.5 453.5,312.5C 453.5,312.167 453.5,311.833 453.5,311.5C 454.873,311.657 456.207,311.49 457.5,311C 457.167,310.667 456.833,310.333 456.5,310C 462.784,307.832 462.784,306.165 456.5,305C 458.134,304.506 459.801,304.34 461.5,304.5C 461.5,303.167 461.5,301.833 461.5,300.5C 458.833,300.5 456.167,300.5 453.5,300.5C 453.5,299.5 453.5,298.5 453.5,297.5C 456.167,297.5 458.833,297.5 461.5,297.5C 461.263,296.209 461.596,295.209 462.5,294.5 Z"/></g>
<g><path style="opacity:1" fill="#020645" d="M 407.5,333.5 C 420.833,333.5 434.167,333.5 447.5,333.5C 455.5,334.167 463.5,334.833 471.5,335.5C 469.01,337.12 466.344,338.62 463.5,340C 436.835,340.5 410.169,340.667 383.5,340.5C 380.008,339.59 377.008,337.924 374.5,335.5C 374.147,333.365 374.98,332.032 377,331.5C 379.298,332.961 381.465,334.628 383.5,336.5C 388.792,337.495 394.125,337.828 399.5,337.5C 398.167,334.833 396.833,332.167 395.5,329.5C 396.17,322.527 395.837,315.527 394.5,308.5C 392.249,307.135 390.249,307.469 388.5,309.5C 387.2,312.309 387.2,314.976 388.5,317.5C 388.5,318.833 388.5,320.167 388.5,321.5C 386.833,321.5 385.167,321.5 383.5,321.5C 383.745,318.135 383.078,314.968 381.5,312C 382.742,310.349 383.576,308.515 384,306.5C 384.333,306.833 384.667,307.167 385,307.5C 386.682,304.231 389.182,301.731 392.5,300C 393.944,299.219 395.277,299.386 396.5,300.5C 398.303,306.542 399.969,312.542 401.5,318.5C 398.929,320.944 398.929,323.444 401.5,326C 400.115,327.597 399.449,329.43 399.5,331.5C 402.167,332.167 404.833,332.833 407.5,333.5 Z"/></g>
<g><path style="opacity:1" fill="#666886" d="M 425.5,289.5 C 427.463,296.424 428.13,303.757 427.5,311.5C 424.762,312.035 422.928,311.035 422,308.5C 421.333,303.167 421.333,297.833 422,292.5C 423.145,291.364 424.312,290.364 425.5,289.5 Z"/></g>
<g><path style="opacity:1" fill="#777da3" d="M 466.5,300.5 C 469.833,300.5 473.167,300.5 476.5,300.5C 476.5,303.167 476.5,305.833 476.5,308.5C 473.482,308.665 470.482,308.498 467.5,308C 466.565,305.619 466.232,303.119 466.5,300.5 Z"/></g>
<g><path style="opacity:1" fill="#040c41" d="M 468.5,302.5 C 470.833,302.5 473.167,302.5 475.5,302.5C 475.5,303.833 475.5,305.167 475.5,306.5C 473.167,306.5 470.833,306.5 468.5,306.5C 468.5,305.167 468.5,303.833 468.5,302.5 Z"/></g>
<g><path style="opacity:1" fill="#346a7c" d="M 127.5,306.5 C 149.5,306.5 171.5,306.5 193.5,306.5C 193.5,316.5 193.5,326.5 193.5,336.5C 173.833,336.5 154.167,336.5 134.5,336.5C 131.522,329.203 128.522,321.87 125.5,314.5C 127.011,315.502 128.678,316.169 130.5,316.5C 130.337,318.857 130.503,321.19 131,323.5C 132.582,324.96 133.915,326.627 135,328.5C 136.236,327.601 137.07,326.434 137.5,325C 135.641,321.388 134.974,317.721 135.5,314C 137.167,313 138.5,311.667 139.5,310C 135.217,309.232 131.217,308.066 127.5,306.5 Z"/></g>
<g><path style="opacity:1" fill="#6d7090" d="M 453.5,300.5 C 456.167,300.5 458.833,300.5 461.5,300.5C 461.5,301.833 461.5,303.167 461.5,304.5C 459.801,304.34 458.134,304.506 456.5,305C 462.784,306.165 462.784,307.832 456.5,310C 456.833,310.333 457.167,310.667 457.5,311C 456.207,311.49 454.873,311.657 453.5,311.5C 453.5,307.833 453.5,304.167 453.5,300.5 Z"/></g>
<g><path style="opacity:1" fill="#6f6f6f" d="M 220.5,310.5 C 212.41,310.167 205.077,310.501 198.5,311.5C 198.5,313.167 198.5,314.833 198.5,316.5C 197.833,316.5 197.5,316.833 197.5,317.5C 196.527,315.052 196.194,312.385 196.5,309.5C 204.684,309.174 212.684,309.508 220.5,310.5 Z"/></g>
<g><path style="opacity:1" fill="#1a155f" d="M 479.5,308.5 C 479.5,309.5 479.5,310.5 479.5,311.5C 478.833,311.5 478.167,311.5 477.5,311.5C 473.167,311.5 468.833,311.5 464.5,311.5C 464.328,310.508 464.662,309.842 465.5,309.5C 470.263,309.774 474.93,309.441 479.5,308.5 Z"/></g>
<g><path style="opacity:1" fill="#020b14" d="M 162.5,310.5 C 168.833,310.5 175.167,310.5 181.5,310.5C 181.5,312.833 181.5,315.167 181.5,317.5C 178.15,317.335 174.817,317.502 171.5,318C 174.146,318.497 176.813,318.664 179.5,318.5C 179.5,321.167 179.5,323.833 179.5,326.5C 176.753,326.187 174.086,326.52 171.5,327.5C 174.768,328.487 178.102,328.82 181.5,328.5C 181.5,330.833 181.5,333.167 181.5,335.5C 175.167,335.5 168.833,335.5 162.5,335.5C 162.5,327.167 162.5,318.833 162.5,310.5 Z"/></g>
<g><path style="opacity:1" fill="#010101" d="M 220.5,310.5 C 220.5,312.833 220.5,315.167 220.5,317.5C 218.167,317.5 215.833,317.5 213.5,317.5C 212.833,317.5 212.5,317.167 212.5,316.5C 214.833,316.5 217.167,316.5 219.5,316.5C 219.5,314.833 219.5,313.167 219.5,311.5C 212.5,311.5 205.5,311.5 198.5,311.5C 205.077,310.501 212.41,310.167 220.5,310.5 Z"/></g>
<g><path style="opacity:1" fill="#0d0f13" d="M 269.5,310.5 C 272.653,310.157 274.987,310.49 276.5,311.5C 274.5,311.5 272.5,311.5 270.5,311.5C 270.666,316.511 270.499,321.511 270,326.5C 267.05,329.145 264.217,329.145 261.5,326.5C 261.328,325.508 261.662,324.842 262.5,324.5C 262.484,326.484 263.484,327.484 265.5,327.5C 267.038,327.547 268.038,326.88 268.5,325.5C 269.487,320.695 269.821,315.695 269.5,310.5 Z"/></g>
<g><path style="opacity:1" fill="#f4f5f5" d="M 198.5,311.5 C 205.5,311.5 212.5,311.5 219.5,311.5C 219.5,313.167 219.5,314.833 219.5,316.5C 217.167,316.5 214.833,316.5 212.5,316.5C 211.51,322.31 211.177,328.31 211.5,334.5C 209.5,334.5 207.5,334.5 205.5,334.5C 205.5,328.5 205.5,322.5 205.5,316.5C 203.167,316.5 200.833,316.5 198.5,316.5C 198.5,314.833 198.5,313.167 198.5,311.5 Z"/></g>
<g><path style="opacity:1" fill="#a2a2a2" d="M 225.5,310.5 C 225.5,318.833 225.5,327.167 225.5,335.5C 228.167,335.5 230.833,335.5 233.5,335.5C 233.833,335.5 234.167,335.5 234.5,335.5C 231.375,336.479 228.042,336.813 224.5,336.5C 224.174,327.651 224.507,318.984 225.5,310.5 Z"/></g>
<g><path style="opacity:1" fill="#010101" d="M 225.5,310.5 C 230.833,310.5 236.167,310.5 241.5,310.5C 241.5,311.167 241.167,311.5 240.5,311.5C 235.833,311.5 231.167,311.5 226.5,311.5C 226.5,319.167 226.5,326.833 226.5,334.5C 228.5,334.5 230.5,334.5 232.5,334.5C 233.167,334.5 233.5,334.833 233.5,335.5C 230.833,335.5 228.167,335.5 225.5,335.5C 225.5,327.167 225.5,318.833 225.5,310.5 Z"/></g>
<g><path style="opacity:1" fill="#f6f6f6" d="M 240.5,311.5 C 245.433,315.674 245.766,320.34 241.5,325.5C 243.131,328.596 245.131,331.43 247.5,334C 245.167,334.667 242.833,334.667 240.5,334C 238.326,330.996 235.992,328.163 233.5,325.5C 232.516,328.428 232.183,331.428 232.5,334.5C 230.5,334.5 228.5,334.5 226.5,334.5C 226.5,326.833 226.5,319.167 226.5,311.5C 231.167,311.5 235.833,311.5 240.5,311.5 Z"/></g>
<g><path style="opacity:1" fill="#f6f7f7" d="M 260.5,323.5 C 260.263,324.791 260.596,325.791 261.5,326.5C 264.217,329.145 267.05,329.145 270,326.5C 270.499,321.511 270.666,316.511 270.5,311.5C 272.5,311.5 274.5,311.5 276.5,311.5C 276.5,317.167 276.5,322.833 276.5,328.5C 271.383,334.811 265.05,336.145 257.5,332.5C 256.68,330.86 255.847,329.193 255,327.5C 254.501,322.177 254.334,316.844 254.5,311.5C 256.5,311.5 258.5,311.5 260.5,311.5C 260.5,315.5 260.5,319.5 260.5,323.5 Z"/></g>
<g><path style="opacity:1" fill="#737371" d="M 262.5,324.5 C 261.662,324.842 261.328,325.508 261.5,326.5C 260.596,325.791 260.263,324.791 260.5,323.5C 261.485,319.366 261.818,315.032 261.5,310.5C 258.833,310.5 256.167,310.5 253.5,310.5C 253.5,315.5 253.5,320.5 253.5,325.5C 252.512,320.36 252.179,315.026 252.5,309.5C 255.833,309.5 259.167,309.5 262.5,309.5C 262.5,314.5 262.5,319.5 262.5,324.5 Z"/></g>
<g><path style="opacity:1" fill="#bbc0d9" d="M 390.5,327.5 C 391.702,323.952 392.369,320.285 392.5,316.5C 391.5,316.5 390.5,316.5 389.5,316.5C 389.318,314.409 389.652,312.409 390.5,310.5C 391.325,309.614 392.325,309.281 393.5,309.5C 394.539,315.797 394.706,322.13 394,328.5C 392.244,329.985 391.077,329.652 390.5,327.5 Z"/></g>
<g><path style="opacity:1" fill="#b0b2cd" d="M 464.5,292.5 C 465.489,297.975 465.822,303.642 465.5,309.5C 464.662,309.842 464.328,310.508 464.5,311.5C 462.565,312.15 460.565,312.483 458.5,312.5C 460.167,311.5 461.5,310.167 462.5,308.5C 463.665,303.367 464.332,298.034 464.5,292.5 Z"/></g>
<g><path style="opacity:1" fill="#e0e2ed" d="M 385.5,325.5 C 384.178,325.67 383.011,325.337 382,324.5C 381.648,322.753 381.148,321.086 380.5,319.5C 380.44,318.957 380.107,318.624 379.5,318.5C 378.818,319.243 378.151,319.909 377.5,320.5C 376.167,320.5 374.833,320.5 373.5,320.5C 373.775,326.51 372.942,326.843 371,321.5C 370.51,322.793 370.343,324.127 370.5,325.5C 367.234,325.567 365.734,323.901 366,320.5C 365.063,316.833 365.563,313.499 367.5,310.5C 371.235,309.699 374.901,308.699 378.5,307.5C 378.336,310.187 378.503,312.854 379,315.5C 379.893,314.289 380.726,314.289 381.5,315.5C 381.829,319.359 383.162,322.692 385.5,325.5 Z"/></g>
<g><path style="opacity:1" fill="#cccfe7" d="M 419.5,311.5 C 415.316,312.166 410.982,312.833 406.5,313.5C 405.923,315.55 404.59,316.55 402.5,316.5C 402.487,310.565 401.321,304.898 399,299.5C 397.786,297.951 396.286,296.785 394.5,296C 397.642,296.088 400.142,297.588 402,300.5C 403.616,304.347 404.616,308.347 405,312.5C 405.5,312 406,311.5 406.5,311C 410.92,310.232 415.253,310.398 419.5,311.5 Z"/></g>
<g><path style="opacity:1" fill="#19323c" d="M 269.5,310.5 C 272.287,309.523 275.287,309.19 278.5,309.5C 278.666,315.509 278.499,321.509 278,327.5C 277.617,328.056 277.117,328.389 276.5,328.5C 276.5,322.833 276.5,317.167 276.5,311.5C 274.987,310.49 272.653,310.157 269.5,310.5 Z"/></g>
<g><path style="opacity:1" fill="#84869a" d="M 423.5,313.5 C 435.5,313.5 447.5,313.5 459.5,313.5C 455.167,314.167 450.833,314.833 446.5,315.5C 438.167,315.5 429.833,315.5 421.5,315.5C 421.5,316.833 421.5,318.167 421.5,319.5C 420.549,318.081 420.216,316.415 420.5,314.5C 421.791,314.737 422.791,314.404 423.5,313.5 Z"/></g>
<g><path style="opacity:1" fill="#51526f" d="M 477.5,311.5 C 478.167,311.5 478.833,311.5 479.5,311.5C 479.5,314.167 479.5,316.833 479.5,319.5C 478.549,318.081 478.216,316.415 478.5,314.5C 473.637,314.181 468.97,314.514 464.5,315.5C 458.5,315.5 452.5,315.5 446.5,315.5C 450.833,314.833 455.167,314.167 459.5,313.5C 465.926,314.12 471.926,313.453 477.5,311.5 Z"/></g>
<g><path style="opacity:1" fill="#182428" d="M 335.5,311.5 C 335.167,311.5 334.833,311.5 334.5,311.5C 332.473,311.338 330.473,311.505 328.5,312C 326.353,315.115 323.853,317.948 321,320.5C 320.502,317.518 320.335,314.518 320.5,311.5C 318.5,311.5 316.5,311.5 314.5,311.5C 314.537,310.698 315.537,310.365 317.5,310.5C 320.134,310.685 322.3,311.685 324,313.5C 327.512,310.502 331.345,309.835 335.5,311.5 Z"/></g>
<g><path style="opacity:1" fill="#f8fbfc" d="M 446.5,315.5 C 452.5,315.5 458.5,315.5 464.5,315.5C 464.5,316.833 464.5,318.167 464.5,319.5C 458.833,319.5 453.167,319.5 447.5,319.5C 440.5,319.5 433.5,319.5 426.5,319.5C 424.833,319.5 423.167,319.5 421.5,319.5C 421.5,318.167 421.5,316.833 421.5,315.5C 429.833,315.5 438.167,315.5 446.5,315.5 Z"/></g>
<g><path style="opacity:1" fill="#222221" d="M 260.5,323.5 C 260.5,319.5 260.5,315.5 260.5,311.5C 258.5,311.5 256.5,311.5 254.5,311.5C 254.334,316.844 254.501,322.177 255,327.5C 255.847,329.193 256.68,330.86 257.5,332.5C 254.41,331.335 253.076,329.002 253.5,325.5C 253.5,320.5 253.5,315.5 253.5,310.5C 256.167,310.5 258.833,310.5 261.5,310.5C 261.818,315.032 261.485,319.366 260.5,323.5 Z"/></g>
<g><path style="opacity:1" fill="#eceeed" d="M 163.5,311.5 C 169.167,311.5 174.833,311.5 180.5,311.5C 180.5,313.167 180.5,314.833 180.5,316.5C 177.167,316.5 173.833,316.5 170.5,316.5C 170.5,317.5 170.5,318.5 170.5,319.5C 173.167,319.5 175.833,319.5 178.5,319.5C 178.5,321.167 178.5,322.833 178.5,324.5C 175.833,324.5 173.167,324.5 170.5,324.5C 170.5,326.167 170.5,327.833 170.5,329.5C 173.833,329.5 177.167,329.5 180.5,329.5C 180.5,331.167 180.5,332.833 180.5,334.5C 174.833,334.5 169.167,334.5 163.5,334.5C 163.5,326.833 163.5,319.167 163.5,311.5 Z"/></g>
<g><path style="opacity:1" fill="#383838" d="M 232.5,315.5 C 237.667,314.492 239.334,316.325 237.5,321C 235.866,321.494 234.199,321.66 232.5,321.5C 232.5,319.5 232.5,317.5 232.5,315.5 Z"/></g>
<g><path style="opacity:1" fill="#030b12" d="M 102.5,310.5 C 102.5,312.833 102.5,315.167 102.5,317.5C 99.4816,317.335 96.4816,317.502 93.5,318C 95.8098,318.497 98.1432,318.663 100.5,318.5C 100.5,320.833 100.5,323.167 100.5,325.5C 98.1667,325.5 95.8333,325.5 93.5,325.5C 93.5,326.5 93.5,327.5 93.5,328.5C 96.5,328.5 99.5,328.5 102.5,328.5C 102.5,330.833 102.5,333.167 102.5,335.5C 96.0698,335.833 90.4032,335.5 85.5,334.5C 90.8333,334.5 96.1667,334.5 101.5,334.5C 101.5,332.833 101.5,331.167 101.5,329.5C 98.1667,329.5 94.8333,329.5 91.5,329.5C 91.5,327.833 91.5,326.167 91.5,324.5C 94.1667,324.5 96.8333,324.5 99.5,324.5C 99.5,322.833 99.5,321.167 99.5,319.5C 96.8333,319.5 94.1667,319.5 91.5,319.5C 91.5,318.5 91.5,317.5 91.5,316.5C 94.8333,316.5 98.1667,316.5 101.5,316.5C 101.5,314.833 101.5,313.167 101.5,311.5C 96.1667,311.5 90.8333,311.5 85.5,311.5C 90.4032,310.5 96.0698,310.167 102.5,310.5 Z"/></g>
<g><path style="opacity:1" fill="#e1e1e1" d="M 234.5,317.5 C 237.957,317.667 238.29,318.667 235.5,320.5C 234.614,319.675 234.281,318.675 234.5,317.5 Z"/></g>
<g><path style="opacity:1" fill="#1b3341" d="M 102.5,310.5 C 96.0698,310.167 90.4032,310.5 85.5,311.5C 85.5,319.167 85.5,326.833 85.5,334.5C 90.4032,335.5 96.0698,335.833 102.5,335.5C 102.5,333.167 102.5,330.833 102.5,328.5C 103.473,330.948 103.806,333.615 103.5,336.5C 96.8333,336.5 90.1667,336.5 83.5,336.5C 83.5,327.5 83.5,318.5 83.5,309.5C 90.0221,309.177 96.3554,309.51 102.5,310.5 Z"/></g>
<g><path style="opacity:1" fill="#aea5ac" d="M 203.5,317.5 C 204.49,323.31 204.823,329.31 204.5,335.5C 207.167,335.5 209.833,335.5 212.5,335.5C 212.833,335.5 213.167,335.5 213.5,335.5C 210.375,336.479 207.042,336.813 203.5,336.5C 203.5,330.167 203.5,323.833 203.5,317.5 Z"/></g>
<g><path style="opacity:1" fill="#070205" d="M 197.5,317.5 C 197.5,316.833 197.833,316.5 198.5,316.5C 200.833,316.5 203.167,316.5 205.5,316.5C 205.5,322.5 205.5,328.5 205.5,334.5C 207.5,334.5 209.5,334.5 211.5,334.5C 212.167,334.5 212.5,334.833 212.5,335.5C 209.833,335.5 207.167,335.5 204.5,335.5C 204.823,329.31 204.49,323.31 203.5,317.5C 201.5,317.5 199.5,317.5 197.5,317.5 Z"/></g>
<g><path style="opacity:1" fill="#454545" d="M 212.5,316.5 C 212.5,317.167 212.833,317.5 213.5,317.5C 213.5,323.5 213.5,329.5 213.5,335.5C 213.167,335.5 212.833,335.5 212.5,335.5C 212.5,334.833 212.167,334.5 211.5,334.5C 211.177,328.31 211.51,322.31 212.5,316.5 Z"/></g>
<g><path style="opacity:1" fill="#494778" d="M 389.5,316.5 C 390.5,316.5 391.5,316.5 392.5,316.5C 392.369,320.285 391.702,323.952 390.5,327.5C 389.833,325.5 389.167,323.5 388.5,321.5C 388.5,320.167 388.5,318.833 388.5,317.5C 389.167,317.5 389.5,317.167 389.5,316.5 Z"/></g>
<g><path style="opacity:1" fill="#a7aacd" d="M 464.5,315.5 C 465.451,316.919 465.784,318.585 465.5,320.5C 459.31,320.823 453.31,320.49 447.5,319.5C 453.167,319.5 458.833,319.5 464.5,319.5C 464.5,318.167 464.5,316.833 464.5,315.5 Z"/></g>
<g><path style="opacity:1" fill="#182930" d="M 138.5,327.5 C 138.555,332.559 141.222,334.893 146.5,334.5C 154.176,334.007 156.842,330.174 154.5,323C 150.946,321.459 147.613,319.625 144.5,317.5C 147.168,316.262 149.834,316.262 152.5,317.5C 154.138,316.295 154.471,314.962 153.5,313.5C 148.146,310.36 143.48,311.026 139.5,315.5C 138.957,315.44 138.624,315.107 138.5,314.5C 139.313,313.186 140.313,312.019 141.5,311C 146.327,310.116 150.994,310.616 155.5,312.5C 155.833,313 156.167,313.5 156.5,314C 155.691,315.784 155.024,317.617 154.5,319.5C 158.444,324.364 158.444,329.197 154.5,334C 148.304,336.436 142.471,335.936 137,332.5C 136.401,330.465 136.901,328.799 138.5,327.5 Z"/></g>
<g><path style="opacity:1" fill="#555976" d="M 426.5,320.5 C 426.5,320.167 426.5,319.833 426.5,319.5C 433.5,319.5 440.5,319.5 447.5,319.5C 453.31,320.49 459.31,320.823 465.5,320.5C 469.182,320.335 472.848,320.501 476.5,321C 475.956,321.717 475.289,322.217 474.5,322.5C 458.671,321.504 442.671,320.837 426.5,320.5 Z"/></g>
<g><path style="opacity:1" fill="#15222a" d="M 334.5,312.5 C 335.525,312.897 335.692,313.563 335,314.5C 333.023,317.312 330.856,319.978 328.5,322.5C 330.605,324.592 332.272,326.925 333.5,329.5C 330.854,327.521 328.521,325.188 326.5,322.5C 328.81,318.859 331.477,315.526 334.5,312.5 Z"/></g>
<g><path style="opacity:1" fill="#686999" d="M 380.5,319.5 C 379.691,321.292 379.191,323.292 379,325.5C 378.392,323.846 377.892,322.179 377.5,320.5C 378.151,319.909 378.818,319.243 379.5,318.5C 380.107,318.624 380.44,318.957 380.5,319.5 Z"/></g>
<g><path style="opacity:1" fill="#aaacd4" d="M 426.5,320.5 C 442.671,320.837 458.671,321.504 474.5,322.5C 453.831,322.667 433.164,322.5 412.5,322C 410.998,321.417 409.665,320.584 408.5,319.5C 408.833,319.167 409.167,318.833 409.5,318.5C 414.975,320.346 420.642,321.013 426.5,320.5 Z"/></g>
<g><path style="opacity:1" fill="#f3f6f6" d="M 85.5,311.5 C 90.8333,311.5 96.1667,311.5 101.5,311.5C 101.5,313.167 101.5,314.833 101.5,316.5C 98.1667,316.5 94.8333,316.5 91.5,316.5C 91.5,317.5 91.5,318.5 91.5,319.5C 94.1667,319.5 96.8333,319.5 99.5,319.5C 99.5,321.167 99.5,322.833 99.5,324.5C 96.8333,324.5 94.1667,324.5 91.5,324.5C 91.5,326.167 91.5,327.833 91.5,329.5C 94.8333,329.5 98.1667,329.5 101.5,329.5C 101.5,331.167 101.5,332.833 101.5,334.5C 96.1667,334.5 90.8333,334.5 85.5,334.5C 85.5,326.833 85.5,319.167 85.5,311.5 Z"/></g>
<g><path style="opacity:1" fill="#373737" d="M 241.5,310.5 C 246.191,313.131 247.691,317.131 246,322.5C 244.764,323.399 243.93,324.566 243.5,326C 245.417,328.498 247.084,331.165 248.5,334C 248.355,334.772 248.022,335.439 247.5,336C 244.773,336.818 242.106,336.652 239.5,335.5C 238.243,333.321 236.743,331.321 235,329.5C 234.505,331.473 234.338,333.473 234.5,335.5C 234.167,335.5 233.833,335.5 233.5,335.5C 233.5,334.833 233.167,334.5 232.5,334.5C 232.183,331.428 232.516,328.428 233.5,325.5C 235.992,328.163 238.326,330.996 240.5,334C 242.833,334.667 245.167,334.667 247.5,334C 245.131,331.43 243.131,328.596 241.5,325.5C 245.766,320.34 245.433,315.674 240.5,311.5C 241.167,311.5 241.5,311.167 241.5,310.5 Z"/></g>
<g><path style="opacity:1" fill="#f6f7f4" d="M 314.5,311.5 C 316.5,311.5 318.5,311.5 320.5,311.5C 320.335,314.518 320.502,317.518 321,320.5C 323.853,317.948 326.353,315.115 328.5,312C 330.473,311.505 332.473,311.338 334.5,311.5C 334.5,311.833 334.5,312.167 334.5,312.5C 331.477,315.526 328.81,318.859 326.5,322.5C 328.521,325.188 330.854,327.521 333.5,329.5C 333.859,331.371 334.859,332.871 336.5,334C 333.773,334.818 331.106,334.652 328.5,333.5C 325.812,330.646 323.312,327.646 321,324.5C 320.502,327.817 320.335,331.15 320.5,334.5C 318.5,334.5 316.5,334.5 314.5,334.5C 314.5,327.167 314.5,319.833 314.5,312.5C 314.5,312.167 314.5,311.833 314.5,311.5 Z"/></g>
<g><path style="opacity:1" fill="#eef2f4" d="M 406.5,323.5 C 422.786,324.471 439.119,324.804 455.5,324.5C 463.316,325.492 471.316,325.826 479.5,325.5C 479.5,326.5 479.5,327.5 479.5,328.5C 475.498,328.964 471.831,328.298 468.5,326.5C 463.5,326.5 458.5,326.5 453.5,326.5C 453.216,328.415 453.549,330.081 454.5,331.5C 455.167,331.5 455.833,331.5 456.5,331.5C 458.833,331.5 461.167,331.5 463.5,331.5C 465.167,331.5 466.833,331.5 468.5,331.5C 471.391,330.597 474.391,330.264 477.5,330.5C 478.833,330.5 480.167,330.5 481.5,330.5C 481.5,331.5 481.5,332.5 481.5,333.5C 470.167,333.5 458.833,333.5 447.5,333.5C 434.167,333.5 420.833,333.5 407.5,333.5C 406.71,332.599 405.71,331.932 404.5,331.5C 403.964,328.302 404.631,325.635 406.5,323.5 Z"/></g>
<g><path style="opacity:1" fill="#1b1c4c" d="M 421.5,326.5 C 426.5,326.5 431.5,326.5 436.5,326.5C 436.5,328.167 436.5,329.833 436.5,331.5C 431.056,332.108 426.056,331.442 421.5,329.5C 421.5,328.5 421.5,327.5 421.5,326.5 Z"/></g>
<g><path style="opacity:1" fill="#444c5f" d="M 468.5,326.5 C 468.5,326.833 468.5,327.167 468.5,327.5C 463.833,327.5 459.167,327.5 454.5,327.5C 454.5,328.833 454.5,330.167 454.5,331.5C 453.549,330.081 453.216,328.415 453.5,326.5C 458.5,326.5 463.5,326.5 468.5,326.5 Z"/></g>
<g><path style="opacity:1" fill="#050d43" d="M 364.5,307.5 C 365.5,307.5 366.5,307.5 367.5,307.5C 367.5,308.5 367.5,309.5 367.5,310.5C 365.563,313.499 365.063,316.833 366,320.5C 365.734,323.901 367.234,325.567 370.5,325.5C 370.343,324.127 370.51,322.793 371,321.5C 372.942,326.843 373.775,326.51 373.5,320.5C 374.833,320.5 376.167,320.5 377.5,320.5C 377.892,322.179 378.392,323.846 379,325.5C 379.191,323.292 379.691,321.292 380.5,319.5C 381.148,321.086 381.648,322.753 382,324.5C 383.011,325.337 384.178,325.67 385.5,325.5C 387.641,326.812 389.308,328.645 390.5,331C 391.766,331.309 392.933,331.809 394,332.5C 394.232,331.263 394.732,330.263 395.5,329.5C 396.833,332.167 398.167,334.833 399.5,337.5C 394.125,337.828 388.792,337.495 383.5,336.5C 381.465,334.628 379.298,332.961 377,331.5C 374.98,332.032 374.147,333.365 374.5,335.5C 372.405,334.588 370.405,333.421 368.5,332C 360.561,326.043 358.227,318.21 361.5,308.5C 362.417,307.873 363.417,307.539 364.5,307.5 Z"/></g>
<g><path style="opacity:1" fill="#7c80a3" d="M 406.5,323.5 C 404.631,325.635 403.964,328.302 404.5,331.5C 403.523,328.713 403.19,325.713 403.5,322.5C 404.791,322.263 405.791,322.596 406.5,323.5 Z"/></g>
<g><path style="opacity:1" fill="#b6b2d4" d="M 421.5,326.5 C 421.5,327.5 421.5,328.5 421.5,329.5C 405.655,329.133 405.655,328.133 421.5,326.5 Z"/></g>
<g><path style="opacity:1" fill="#060932" d="M 468.5,327.5 C 468.5,328.833 468.5,330.167 468.5,331.5C 466.833,331.5 465.167,331.5 463.5,331.5C 464.718,330.839 466.051,330.172 467.5,329.5C 463.878,328.341 460.211,328.175 456.5,329C 455.402,329.77 455.402,330.603 456.5,331.5C 455.833,331.5 455.167,331.5 454.5,331.5C 454.5,330.167 454.5,328.833 454.5,327.5C 459.167,327.5 463.833,327.5 468.5,327.5 Z"/></g>
<g><path style="opacity:1" fill="#0e1b1d" d="M 138.5,316.5 C 138.372,318.655 138.872,320.655 140,322.5C 142.637,324.235 145.47,325.568 148.5,326.5C 149.386,327.325 149.719,328.325 149.5,329.5C 145.633,329.758 141.966,329.092 138.5,327.5C 139.85,325.38 141.517,325.547 143.5,328C 145.167,328.667 146.833,328.667 148.5,328C 144.637,326.819 141.137,324.986 138,322.5C 137.211,320.288 137.378,318.288 138.5,316.5 Z"/></g>
<g><path style="opacity:1" fill="#04054f" d="M 463.5,331.5 C 461.167,331.5 458.833,331.5 456.5,331.5C 455.402,330.603 455.402,329.77 456.5,329C 460.211,328.175 463.878,328.341 467.5,329.5C 466.051,330.172 464.718,330.839 463.5,331.5 Z"/></g>
<g><path style="opacity:1" fill="#aeadcd" d="M 455.5,324.5 C 464.167,324.5 472.833,324.5 481.5,324.5C 481.5,326.167 481.5,327.833 481.5,329.5C 479.901,329.232 478.568,329.566 477.5,330.5C 474.391,330.264 471.391,330.597 468.5,331.5C 468.5,330.167 468.5,328.833 468.5,327.5C 468.5,327.167 468.5,326.833 468.5,326.5C 471.831,328.298 475.498,328.964 479.5,328.5C 479.5,327.5 479.5,326.5 479.5,325.5C 471.316,325.826 463.316,325.492 455.5,324.5 Z"/></g>
<g><path style="opacity:1" fill="#326c80" d="M 268.5,306.5 C 292.833,306.5 317.167,306.5 341.5,306.5C 341.5,308.167 341.5,309.833 341.5,311.5C 339.5,311.5 337.5,311.5 335.5,311.5C 331.345,309.835 327.512,310.502 324,313.5C 322.3,311.685 320.134,310.685 317.5,310.5C 315.537,310.365 314.537,310.698 314.5,311.5C 314.5,311.833 314.5,312.167 314.5,312.5C 312.533,320.097 311.866,328.097 312.5,336.5C 297.657,336.829 282.99,336.496 268.5,335.5C 273.04,335.292 275.707,332.959 276.5,328.5C 277.117,328.389 277.617,328.056 278,327.5C 278.499,321.509 278.666,315.509 278.5,309.5C 275.287,309.19 272.287,309.523 269.5,310.5C 269.821,315.695 269.487,320.695 268.5,325.5C 268.5,319.167 268.5,312.833 268.5,306.5 Z"/></g>
<g><path style="opacity:1" fill="#15222a" d="M 294.5,318.5 C 292.828,321.625 293.162,324.458 295.5,327C 299.446,327.175 303.28,327.342 307,327.5C 307.566,333.764 304.566,336.43 298,335.5C 285.292,334.087 281.292,327.42 286,315.5C 290.842,310.701 296.675,309.201 303.5,311C 307.051,312.677 308.384,315.51 307.5,319.5C 304.557,319.353 301.724,318.687 299,317.5C 297.56,318.148 296.06,318.481 294.5,318.5 Z"/></g>
<g><path style="opacity:1" fill="#f4f4f2" d="M 294.5,318.5 C 291.399,320.645 290.899,323.312 293,326.5C 296.626,330.136 300.626,330.47 305,327.5C 305.743,329.441 305.576,331.274 304.5,333C 291.27,336.826 285.103,331.993 286,318.5C 290.826,311.349 297.16,309.682 305,313.5C 305.667,315.167 305.667,316.833 305,318.5C 303.006,317.336 300.839,316.669 298.5,316.5C 296.645,316.34 295.312,317.007 294.5,318.5 Z"/></g>
<g><path style="opacity:1" fill="#eff0f0" d="M 138.5,327.5 C 141.966,329.092 145.633,329.758 149.5,329.5C 149.719,328.325 149.386,327.325 148.5,326.5C 145.47,325.568 142.637,324.235 140,322.5C 138.872,320.655 138.372,318.655 138.5,316.5C 139.167,316.5 139.5,316.167 139.5,315.5C 143.48,311.026 148.146,310.36 153.5,313.5C 154.471,314.962 154.138,316.295 152.5,317.5C 149.834,316.262 147.168,316.262 144.5,317.5C 147.613,319.625 150.946,321.459 154.5,323C 156.842,330.174 154.176,334.007 146.5,334.5C 141.222,334.893 138.555,332.559 138.5,327.5 Z"/></g>
<g><path style="opacity:1" fill="#656785" d="M 481.5,323.5 C 482.483,327.298 482.817,331.298 482.5,335.5C 478.833,335.5 475.167,335.5 471.5,335.5C 463.5,334.833 455.5,334.167 447.5,333.5C 458.833,333.5 470.167,333.5 481.5,333.5C 481.5,332.5 481.5,331.5 481.5,330.5C 480.167,330.5 478.833,330.5 477.5,330.5C 478.568,329.566 479.901,329.232 481.5,329.5C 481.5,327.833 481.5,326.167 481.5,324.5C 481.5,324.167 481.5,323.833 481.5,323.5 Z"/></g>
<g><path style="opacity:1" fill="#1e2a2c" d="M 276.5,328.5 C 275.707,332.959 273.04,335.292 268.5,335.5C 267.167,335.5 265.833,335.5 264.5,335.5C 261.509,335.834 259.176,334.834 257.5,332.5C 265.05,336.145 271.383,334.811 276.5,328.5 Z"/></g>
<g><path style="opacity:1" fill="#15232a" d="M 314.5,312.5 C 314.5,319.833 314.5,327.167 314.5,334.5C 316.5,334.5 318.5,334.5 320.5,334.5C 320.335,331.15 320.502,327.817 321,324.5C 323.312,327.646 325.812,330.646 328.5,333.5C 331.106,334.652 333.773,334.818 336.5,334C 334.859,332.871 333.859,331.371 333.5,329.5C 336.451,330.809 337.784,333.143 337.5,336.5C 334.5,336.5 331.5,336.5 328.5,336.5C 324.593,328.044 322.26,328.044 321.5,336.5C 318.5,336.5 315.5,336.5 312.5,336.5C 311.866,328.097 312.533,320.097 314.5,312.5 Z"/></g>
<g><path style="opacity:1" fill="#366780" d="M 328.5,336.5 C 326.167,336.5 323.833,336.5 321.5,336.5C 322.26,328.044 324.593,328.044 328.5,336.5 Z"/></g>
<g><path style="opacity:1" fill="#172832" d="M 125.5,314.5 C 128.522,321.87 131.522,329.203 134.5,336.5C 131.167,336.5 127.833,336.5 124.5,336.5C 124.579,335.07 124.246,333.736 123.5,332.5C 121.314,331.779 119.147,331.113 117,330.5C 116.187,332.436 115.687,334.436 115.5,336.5C 112.167,336.5 108.833,336.5 105.5,336.5C 106.751,331.715 108.751,327.381 111.5,323.5C 112.833,318.833 114.167,314.167 115.5,309.5C 118.187,309.336 120.854,309.503 123.5,310C 124.267,311.47 124.933,312.97 125.5,314.5 Z"/></g>
<g><path style="opacity:1" fill="#336e86" d="M 124.5,336.5 C 121.5,336.5 118.5,336.5 115.5,336.5C 115.687,334.436 116.187,332.436 117,330.5C 119.147,331.113 121.314,331.779 123.5,332.5C 124.246,333.736 124.579,335.07 124.5,336.5 Z"/></g>
<g><path style="opacity:1" fill="#f3f3f3" d="M 111.5,323.5 C 113.931,319.889 115.597,315.889 116.5,311.5C 118.792,311.244 120.959,311.577 123,312.5C 125.976,319.767 129.143,326.934 132.5,334C 130.19,334.497 127.857,334.663 125.5,334.5C 125.694,330.738 123.86,329.071 120,329.5C 116.167,328.673 114,330.173 113.5,334C 111.5,334.667 109.5,334.667 107.5,334C 109.26,330.649 110.594,327.149 111.5,323.5 Z"/></g>
<g><path style="opacity:1" fill="#131513" d="M 119.5,319.5 C 120.725,320.937 121.725,322.604 122.5,324.5C 120.833,325.833 119.167,325.833 117.5,324.5C 118.174,322.805 118.841,321.138 119.5,319.5 Z"/></g>
<g><path style="opacity:1" fill="#010102" d="M 268.5,340.5 C 269.5,340.5 270.5,340.5 271.5,340.5C 294.833,340.5 318.167,340.5 341.5,340.5C 341.5,343.167 341.5,345.833 341.5,348.5C 254.5,348.5 167.5,348.5 80.5,348.5C 80.5,345.833 80.5,343.167 80.5,340.5C 143.167,340.5 205.833,340.5 268.5,340.5 Z"/></g>
<g><path style="opacity:1" fill="#171a43" d="M 471.5,335.5 C 469.5,338.167 467.167,340.5 464.5,342.5C 437.318,342.728 410.318,342.062 383.5,340.5C 410.169,340.667 436.835,340.5 463.5,340C 466.344,338.62 469.01,337.12 471.5,335.5 Z"/></g>
<g><path style="opacity:1" fill="#8c8aa2" d="M 418.5,346.5 C 419.919,345.549 421.585,345.216 423.5,345.5C 425.857,345.337 428.19,345.503 430.5,346C 429.956,346.717 429.289,347.217 428.5,347.5C 425.375,346.521 422.042,346.187 418.5,346.5 Z"/></g>
<g><path style="opacity:1" fill="#0b1044" d="M 418.5,346.5 C 422.042,346.187 425.375,346.521 428.5,347.5C 402.539,359.336 377.539,357.669 353.5,342.5C 355.607,341.532 357.941,341.198 360.5,341.5C 360.192,339.076 360.526,336.743 361.5,334.5C 378.551,347.511 397.551,351.511 418.5,346.5 Z"/></g>
</svg>
